<?xml version="1.0" standalone="no"?>
<!DOCTYPE svg PUBLIC "-//W3C//DTD SVG 1.1//EN" "http://www.w3.org/Graphics/SVG/1.1/DTD/svg11.dtd">
<svg xmlns="http://www.w3.org/2000/svg" width="1000" height="1000" viewBox="0 0 1000 1000">
    <path id="Trazado" fill="#ffffff" stroke="none" visibility="hidden" d="M -100 -100 L 1100 -100 L 1100 1100 L -100 1100 Z"/>
    <path id="path1" fill="#184d87" stroke="none" visibility="hidden" d="M -100 -100 L 1100 -100 L 1100 1100 L -100 1100 Z"/>
    <path id="path2" fill="#184d87" stroke="none" d="M 517.515625 379.8125 C 518.53125 379.776062 519.53125 379.760437 520.546875 379.765625 L 521.510437 379.765625 C 522.5625 379.765625 523.614563 379.770813 524.671875 379.776062 L 526.854187 379.776062 C 528.776062 379.776062 530.697937 379.78125 532.619812 379.786438 C 534.578125 379.791687 536.541687 379.791687 538.5 379.791687 C 542.34375 379.796875 546.192688 379.807312 550.041687 379.8125 C 550.458313 381.0625 550.458313 381.0625 550.291687 382.135437 L 549.979187 383.447937 L 549.625 384.958313 L 549.223938 386.625 L 548.8125 388.380188 C 548.515625 389.651062 548.213562 390.916687 547.911438 392.1875 C 547.432312 394.203125 546.953125 396.21875 546.479187 398.239563 L 546.234375 399.276062 L 545.739563 401.390625 L 544.96875 404.65625 C 543.125 412.489563 541.317688 420.333313 539.520813 428.177063 C 539.078125 430.098938 538.640625 432.015625 538.197937 433.932312 C 537.864563 435.375 537.536438 436.817688 537.203125 438.265625 L 536.739563 440.276062 C 536.526062 441.197937 536.317688 442.119812 536.109375 443.041687 L 535.75 444.604187 C 535.447937 446.057312 535.223938 447.510437 535.026062 448.979187 C 536.979187 447.333313 536.979187 447.333313 538.864563 445.609375 C 544.619812 440.197937 551.46875 436.588562 559.114563 434.703125 L 560.463562 434.395813 L 561.416687 434.177063 C 569.473938 432.78125 578.802063 433.75 586.463562 436.401062 C 592.03125 438.473938 596.630188 441.557312 600.916687 445.645813 L 601.692688 446.328125 C 606.583313 450.786438 609.723938 457.755188 611.6875 463.921875 C 612.244812 465.833313 612.692688 467.765625 613.114563 469.708313 L 613.317688 470.666687 C 614.244812 475.223938 614.359375 479.807312 614.364563 484.447937 L 614.364563 485.328125 C 614.338562 501.791656 610.390625 518.239624 602.296875 532.635376 C 599.348938 537.71875 595.776062 542.208374 591.739563 546.479126 L 590.796875 547.505249 C 584.619812 553.984375 576.442688 558.895874 567.869812 561.484375 C 557.572937 564.192749 545.942688 565.640625 535.489563 562.942749 C 529.864563 561.390625 525.552063 558.744751 521.458313 554.625 C 518.447937 551.432251 516.026062 547.723999 513.760437 543.979126 C 511.90625 549.541626 510.84375 555.338501 509.588531 561.0625 L 479.151031 561.0625 C 479.421875 558.604126 479.734375 556.270874 480.244781 553.869751 L 480.447906 552.890625 C 480.671875 551.833374 480.890625 550.770874 481.119781 549.708374 L 481.59375 547.4375 C 481.927094 545.84375 482.260406 544.255249 482.598969 542.661499 C 483.015625 540.677124 483.432281 538.6875 483.848969 536.703125 C 485.614594 528.265625 487.427094 519.84375 489.28125 511.427094 C 490.5625 505.635406 491.796875 499.833344 492.984375 494.026031 C 493.510406 491.447906 494.046875 488.869781 494.578125 486.286438 L 494.901031 484.713562 C 496.458344 477.166687 498.0625 469.630188 499.666656 462.09375 C 500.484375 458.255188 501.296875 454.421875 502.109375 450.588562 C 504.171875 440.859375 506.234375 431.135437 508.302094 421.40625 C 508.984375 418.213562 509.661469 415.020813 510.338531 411.822937 C 511.177094 407.864563 512.020813 403.911438 512.864563 399.953125 C 513.302063 397.885437 513.739563 395.822937 514.182312 393.755188 C 514.588562 391.833313 514.994812 389.916687 515.40625 387.994812 C 515.552063 387.291687 515.703125 386.588562 515.854187 385.885437 C 516.052063 384.932312 516.255188 383.979187 516.463562 383.026062 L 516.807312 381.411438 L 517.098938 380.229187 Z M 542.635437 463.916687 C 535.557312 469.322937 531.354187 476.776062 527.9375 484.8125 C 523.84375 494.916656 522.421875 506.416656 523.640625 517.234375 C 524.53125 522.942749 526.411438 528.072876 529.713562 532.833374 C 531.890625 535.010376 534.46875 536.963501 537.432312 537.916626 C 542.609375 539.208374 547.666687 539.333374 552.828125 537.859375 C 557.713562 536.1875 561.786438 533.859375 565.46875 530.229126 L 565.46875 529.395874 L 566.302063 529.395874 C 573.828125 520.760376 577.229187 509.953125 579.40625 498.916656 C 580.963562 490.625 581.208313 481.875 578.786438 473.744812 C 577.40625 469.84375 575.239563 466.484375 572.244812 463.588562 C 569.505188 461.390625 565.869812 459.703125 562.395813 459.083313 C 554.989563 458.390625 548.864563 459.75 542.635437 463.916687 M 66.734375 392.729187 C 72.536461 392.703125 78.34375 392.682312 84.145836 392.666687 C 86.84375 392.661438 89.541664 392.651062 92.239586 392.635437 C 134.854172 392.416687 134.854172 392.416687 151.489578 401.875 C 156.510422 404.885437 161.088547 408.979187 164.083328 414.036438 C 168.765625 422.661438 169.640625 431.197937 169.442703 440.864563 C 169.135422 450.494812 165.973953 459.958313 160.973953 468.145813 C 155.09375 477.036438 147.020828 483.885437 137.5625 488.713531 C 125.828125 494.458344 113.1875 496.96875 100.197914 497.067719 C 99.5625 497.078125 98.927086 497.088531 98.291664 497.09375 C 96.645836 497.114594 95.005211 497.130219 93.359375 497.145844 C 91.666664 497.166656 89.979164 497.1875 88.291664 497.208344 C 85 497.244781 81.703125 497.28125 78.411461 497.3125 L 78.244789 498.96875 C 78.03125 500.875 77.692711 502.723969 77.291664 504.59375 L 77.078125 505.604156 C 76.848961 506.697906 76.614586 507.791656 76.380211 508.885406 C 76.213539 509.666656 76.052086 510.442719 75.885414 511.223969 C 75.447914 513.296875 75.005211 515.369751 74.5625 517.4375 C 74.203125 519.145874 73.838539 520.854126 73.479164 522.5625 C 72.34375 527.895874 71.208336 533.229126 70.067711 538.5625 L 69.854164 539.588501 C 69.005211 543.541626 68.15625 547.5 67.307289 551.453125 L 67.020836 552.776001 C 66.765625 553.973999 66.505211 555.166626 66.25 556.359375 L 66.026039 557.390625 C 65.755211 558.640625 65.46875 559.848999 65.067711 561.0625 L 31.286459 561.0625 C 32.229168 555.4375 32.229168 555.4375 32.619793 553.557251 L 32.895832 552.239624 L 33.1875 550.848999 L 33.505207 549.317749 C 33.796875 547.921875 34.09375 546.526001 34.385418 545.130249 L 34.958332 542.411499 C 37.447918 530.520874 39.979168 518.635376 42.515625 506.755219 C 45.755207 491.552094 48.979168 476.34375 52.203125 461.135437 L 53.182293 456.494812 L 57.348957 436.822937 C 59.703125 425.723938 62.052082 414.619812 64.40625 403.515625 L 65.307289 399.25 L 65.59375 397.890625 C 65.96875 396.171875 66.348961 394.453125 66.734375 392.729187 M 95.505211 418.979187 C 94.828125 420.546875 94.411461 422.067688 94.0625 423.739563 L 93.71875 425.364563 L 93.354164 427.125 L 92.96875 428.963562 C 92.625 430.598938 92.28125 432.239563 91.9375 433.880188 C 91.375 436.578125 90.807289 439.276062 90.239586 441.973938 L 89.609375 444.994812 C 88.807289 448.802063 88 452.609375 87.171875 456.411438 L 86.895836 457.666687 C 86.572914 459.166687 86.244789 460.666687 85.911461 462.166687 C 85.692711 463.151062 85.479164 464.130188 85.265625 465.114563 L 84.911461 466.729187 C 84.677086 468.067688 84.614586 469.291687 84.666664 470.645813 C 102.401039 470.953125 102.401039 470.953125 119.010414 465.276062 C 123.791664 462.567688 127.447914 459.375 130.296875 454.682312 L 130.953125 453.5625 L 131.463547 452.703125 C 133.755203 448.526062 134.286453 443.677063 134.286453 438.979187 C 134.057297 435.510437 133.5625 432.026062 131.786453 428.979187 C 129.239578 425.546875 126.239586 423.109375 122.328125 421.401062 C 115.776039 418.96875 108.958336 418.916687 102.072914 418.953125 C 101.432289 418.958313 100.796875 418.958313 100.15625 418.958313 C 98.604164 418.963562 97.057289 418.973938 95.505211 418.979187 M 773.994812 433.895813 L 775.182312 433.890625 C 776.010437 433.885437 776.838562 433.880188 777.666687 433.880188 C 778.90625 433.875 780.145813 433.864563 781.380188 433.848938 C 791.703125 433.791687 802.307312 435.489563 811.401062 440.645813 C 816.458313 443.692688 820.640625 447.729187 823.614563 452.817688 C 825.130188 455.583313 826.104187 458.442688 826.932312 461.479187 L 827.223938 462.552063 C 828.369812 467.416687 828.286438 472.453125 827.864563 477.395813 L 827.75 478.723938 C 827.34375 483.182312 826.645813 487.567688 825.864563 491.973969 L 825.630188 493.296875 C 823.729187 504.145844 821.526062 514.9375 819.317688 525.723999 C 817.572937 534.244751 815.947937 542.765625 814.520813 551.34375 L 814.348938 552.380249 C 814.244812 553.010376 814.140625 553.635376 814.036438 554.265625 C 813.661438 556.546875 813.208313 558.791626 812.75 561.0625 L 785.645813 561.0625 C 786.125 555.317749 786.125 555.317749 786.651062 552.567749 L 786.817688 551.666626 C 786.989563 550.734375 787.166687 549.807251 787.34375 548.875 C 787.458313 548.239624 787.578125 547.598999 787.697937 546.958374 C 787.984375 545.411499 788.276062 543.859375 788.567688 542.3125 L 787.734375 542.3125 L 787.453125 542.994751 C 786.708313 544.317749 785.713562 545.359375 784.682312 546.453125 L 784.083313 547.104126 C 782.828125 548.453125 781.53125 549.760376 780.223938 551.0625 L 779.619812 551.744751 C 775.239563 556.557251 768.963562 559.895874 762.880188 562 C 761.447937 562.432251 760 562.8125 758.541687 563.145874 L 757.307312 563.432251 C 749.020813 565.005249 739.848938 564.322876 731.880188 561.583374 C 726.114563 559.473999 720.838562 556.072876 716.848938 551.369751 C 713.770813 547.192749 711.6875 542.8125 710.588562 537.729126 L 710.307312 536.5625 C 708.78125 529.25 709.578125 521.390625 711.734375 514.291626 C 713.979187 508.09375 717.78125 502.9375 722.677063 498.5625 C 724.020813 497.505219 725.40625 496.5625 726.848938 495.645844 L 728.005188 494.90625 C 731.21875 492.9375 734.572937 491.5 738.109375 490.229156 L 738.979187 489.911469 C 751.213562 485.526062 764.494812 484.432312 777.411438 484.265625 L 779.151062 484.239563 C 780.651062 484.21875 782.15625 484.197937 783.661438 484.177063 C 785.203125 484.15625 786.744812 484.130188 788.291687 484.109375 C 791.302063 484.0625 794.3125 484.020813 797.322937 483.979187 C 797.458313 483.260437 797.598938 482.536438 797.734375 481.817688 L 797.963562 480.598938 C 798.244812 478.864563 798.302063 477.166687 798.286438 475.411438 L 798.28125 474.375 C 798.223938 471.442688 797.854187 469.015625 796.411438 466.427063 C 794.619812 463.755188 792.083313 462.026062 789.260437 460.557312 C 784.041687 458.265625 778.479187 457.932312 772.875 457.989563 L 771.942688 457.994812 C 766.833313 458.026062 761.890625 458.385437 756.875 459.395813 L 756.005188 459.5625 C 751.90625 460.338562 747.963562 461.609375 744 462.911438 L 742.572937 463.380188 C 739.921875 464.276062 737.390625 465.28125 734.869812 466.510437 C 733.9375 466.895813 733.9375 466.895813 732.6875 466.895813 C 733.729187 460.557312 734.786438 454.21875 735.895813 447.885437 L 736.151062 446.390625 L 736.395813 445.005188 L 736.604187 443.791687 C 736.854187 442.755188 737.125 441.963562 737.692688 441.0625 C 739.671875 440.119812 741.838562 439.583313 743.947937 438.979187 L 744.979187 438.677063 C 754.291687 435.973938 764.265625 433.942688 773.994812 433.895813 M 750.880188 509.734375 C 747.520813 511.911469 744.697937 514.421875 742.770813 517.953125 C 741.244812 521.135376 740.614563 524.192749 740.609375 527.729126 C 740.822937 530.161499 741.640625 532.276001 742.885437 534.369751 C 744.59375 536.65625 747.020813 537.916626 749.588562 539.041626 C 754.5625 540.770874 759.765625 540.682251 764.921875 539.802124 C 770.4375 538.713501 775.46875 536.442749 779.744812 532.744751 C 786.411438 526.458374 789.895813 518.078125 792.526062 509.447906 L 792.848938 508.390625 C 793.338562 506.71875 793.619812 505.322906 793.567688 503.5625 C 771.536438 502.963531 771.536438 502.963531 750.880188 509.734375 M 429.578125 433.796875 L 430.776031 433.791687 C 441.338531 433.744812 452.21875 435.364563 461.536469 440.645813 C 466.604156 443.703125 470.880219 447.8125 473.833344 452.942688 C 476.921875 459.104187 478.078125 464.96875 478.057281 471.869812 L 478.052094 472.755188 C 478.010406 481.614563 476.338531 490.177094 474.723969 498.859375 L 474.505219 500.026031 C 473.338531 506.270844 472.130219 512.510376 470.880219 518.734375 C 470.203125 522.130249 469.526031 525.520874 468.838531 528.911499 C 468.385406 531.166626 467.932281 533.427124 467.484375 535.682251 L 467.265625 536.786499 C 466.057281 542.880249 465.005219 548.989624 464.052094 555.125 L 463.90625 556.0625 C 463.776031 556.885376 463.651031 557.713501 463.526031 558.541626 C 463.302094 559.8125 463.302094 559.8125 462.885406 561.0625 L 435.78125 561.0625 C 436.25 555.916626 436.25 555.916626 436.692719 553.447876 L 436.973969 551.864624 L 437.265625 550.255249 C 437.458344 549.1875 437.651031 548.114624 437.84375 547.041626 L 438.098969 545.625 C 438.322906 544.328125 438.322906 544.328125 438.28125 542.729126 L 437.78125 543.270874 L 435.494781 545.723999 L 434.703125 546.578125 C 433.286469 548.098999 431.838531 549.598999 430.359375 551.0625 L 429.723969 551.760376 C 425.192719 556.640625 419.182281 559.828125 412.973969 562.026001 C 404.53125 564.598999 395.302094 564.817749 386.682281 562.958374 C 380.630219 561.494751 375.463531 558.822876 370.541656 555.015625 L 369.895844 554.395874 L 369.895844 553.5625 L 369.1875 553.307251 C 366.927094 551.953125 365.390625 549.130249 364.057281 546.895874 C 360.859375 540.75 359.744781 533.890625 359.822906 527.020874 C 360.166656 519.640625 361.921875 512.854126 365.723969 506.479156 C 366.739594 504.989594 367.838531 503.640625 369.0625 502.3125 L 369.958344 501.333344 C 372.09375 499.09375 374.385406 497.317719 376.984375 495.645844 L 377.927094 495.015625 C 388.536469 488.203125 402.578125 485.75 414.932281 484.8125 L 416.161469 484.713562 C 422.114594 484.270813 428.083344 484.260437 434.046875 484.177063 C 435.5625 484.15625 437.078125 484.130188 438.59375 484.109375 C 441.546875 484.0625 444.505219 484.020813 447.458344 483.979187 C 447.59375 483.260437 447.729156 482.536438 447.864594 481.817688 L 448.098969 480.598938 C 448.723969 476.71875 448.895844 471.916687 447.494781 468.203125 C 446.130219 465.541687 444.432281 463.651062 441.958344 461.973938 C 437.010406 459.052063 431.53125 458.072937 425.848969 458.015625 C 424.947906 458.010437 424.041656 458.015625 423.140625 458.015625 L 422.192719 458.020813 C 409.635406 458.078125 396.338531 460.588562 385.078125 466.385437 C 384.072906 466.895813 384.072906 466.895813 383.239594 466.895813 C 383.442719 462.348938 384.28125 457.895813 385.067719 453.421875 C 385.302094 452.098938 385.526031 450.770813 385.755219 449.447937 L 386.192719 446.911438 L 386.401031 445.713562 L 386.598969 444.598938 L 386.765625 443.625 C 387.005219 442.671875 387.322906 441.911438 387.828125 441.0625 C 388.588531 440.645813 388.588531 440.645813 389.53125 440.354187 L 390.609375 440.005188 L 391.786469 439.65625 L 393.026031 439.28125 C 397.911469 437.828125 402.84375 436.635437 407.84375 435.645813 L 409.197906 435.380188 C 415.994781 434.098938 422.682281 433.817688 429.578125 433.796875 M 401.015625 509.734375 C 397.65625 511.911469 394.833344 514.421875 392.90625 517.953125 C 391.453125 520.984375 390.739594 523.9375 390.744781 527.3125 C 391 529.723999 391.53125 531.911499 392.828125 533.979126 C 393.739594 535.067749 393.739594 535.067749 394.916656 536.0625 L 395.588531 536.692749 C 397.838531 538.609375 400.338531 539.536499 403.229156 540.098999 C 409.041656 540.984375 415.369781 540.296875 420.864594 538.213501 C 426.145844 535.979126 430.604156 532.71875 434.114594 528.145874 C 438 522.635376 440.479156 516.515625 442.453125 510.098969 L 442.838531 508.859375 C 443.375 507.026031 443.770844 505.484375 443.703125 503.5625 C 421.671875 502.963531 421.671875 502.963531 401.015625 509.734375"/>
    <path id="path3" fill="#e77929" stroke="none" d="M 927.96875 320.90625 L 928.885437 320.875 C 930.401062 320.869812 931.239563 321.09375 932.578125 321.828125 C 933.682312 322.729187 933.682312 322.729187 934.515625 323.979187 C 934.614563 325.546875 934.375 327.088562 933.755188 328.536438 C 933.307312 329.322937 932.828125 330.067688 932.3125 330.817688 L 931.755188 331.671875 C 931.151062 332.583313 930.546875 333.494812 929.932312 334.395813 L 928.677063 336.276062 C 927.369812 338.234375 926.041687 340.182312 924.71875 342.130188 L 922.046875 346.067688 L 921.385437 347.041687 C 919.90625 349.223938 918.432312 351.411438 916.973938 353.609375 C 914.166687 357.817688 911.328125 362.005188 908.494812 366.197937 C 905.072937 371.255188 901.671875 376.328125 898.286438 381.411438 C 895.177063 386.083313 892.020813 390.734375 888.880188 395.390625 C 885.026062 401.09375 885.026062 401.09375 881.203125 406.8125 C 879.234375 409.755188 877.25 412.682312 875.265625 415.614563 C 869.395813 424.291687 869.395813 424.291687 863.59375 433.015625 C 858.567688 440.598938 858.567688 440.598938 856.692688 441.791687 C 855.286438 442.3125 855.286438 442.3125 853.984375 442.338562 C 852.447937 441.776062 851.776062 441.041687 850.697937 439.8125 C 850.020813 438.463562 850.020813 438.463562 849.447937 436.947937 L 849.130188 436.119812 C 848.145813 433.5 847.25 430.854187 846.385437 428.197937 C 845.890625 426.6875 845.390625 425.182312 844.890625 423.677063 L 844.572937 422.713562 C 843.416687 419.21875 842.223938 415.739563 841.03125 412.260437 C 838.166687 403.916687 835.34375 395.5625 832.520813 387.203125 L 829.916687 379.505188 C 828.067688 374.036438 826.208313 368.567688 824.34375 363.104187 C 823.776062 361.432312 823.208313 359.760437 822.640625 358.088562 L 821.838562 355.723938 C 821.067688 353.458313 820.291687 351.192688 819.505188 348.932312 C 819.020813 347.53125 818.541687 346.125 818.0625 344.723938 C 817.84375 344.083313 817.625 343.447937 817.401062 342.8125 C 815.317688 336.848938 815.317688 336.848938 815.671875 333.5625 C 816.088562 332.03125 816.854187 330.78125 817.90625 329.588562 C 819.390625 328.229187 820.838562 327.78125 822.760437 327.3125 C 823.677063 327.203125 824.59375 327.119812 825.515625 327.0625 L 827.145813 326.958313 L 828.911438 326.854187 C 829.536438 326.817688 830.166687 326.776062 830.791687 326.739563 C 832.5 326.630188 834.203125 326.526062 835.911438 326.421875 C 837.729187 326.3125 839.552063 326.197937 841.369812 326.088562 C 844.447937 325.895813 847.526062 325.708313 850.604187 325.520813 C 855.135437 325.239563 859.671875 324.958313 864.203125 324.671875 C 870.84375 324.255188 877.489563 323.838562 884.130188 323.432312 C 888.270813 323.177063 892.416687 322.916687 896.557312 322.65625 C 899.557312 322.46875 902.552063 322.286438 905.546875 322.098938 C 907.307312 321.994812 909.067688 321.885437 910.828125 321.770813 C 923.135437 320.994812 923.135437 320.994812 927.96875 320.90625 M 902.822937 386.895813 C 903.859375 387.354187 904.880188 387.838562 905.880188 388.364563 L 906.765625 388.8125 C 907.677063 389.28125 908.588562 389.755188 909.494812 390.229187 L 910.34375 390.671875 C 912.276062 391.677063 914.197937 392.697937 916.114563 393.71875 L 916.994812 394.1875 C 920.567688 396.088562 924.130188 398 927.65625 399.979187 C 930.161438 401.385437 932.692688 402.75 935.21875 404.109375 C 938.46875 405.859375 941.6875 407.645813 944.890625 409.473938 C 948.9375 411.786438 953.041687 413.973938 957.166687 416.140625 C 961.666687 418.510437 966.151062 420.90625 970.588562 423.395813 C 972.661438 424.557312 974.744812 425.703125 976.828125 426.848938 C 977.619812 427.286438 978.411438 427.71875 979.197937 428.15625 C 981.546875 429.453125 983.890625 430.739563 986.25 432.005188 L 987.395813 432.625 C 988.083313 432.994812 988.770813 433.359375 989.458313 433.71875 C 991.5 434.822937 993.354187 436.057312 994.984375 437.729187 C 995.661438 438.953125 995.661438 438.953125 995.817688 440.229187 C 995.53125 441.557312 995.369812 442.119812 994.567688 443.145813 C 991.109375 445.817688 986.697937 447.380188 982.734375 449.135437 L 980.494812 450.135437 C 978.59375 450.984375 976.692688 451.828125 974.791687 452.671875 C 973.177063 453.385437 971.557312 454.109375 969.942688 454.828125 C 966.875 456.192688 963.8125 457.552063 960.744812 458.911438 C 956.875 460.625 953.005188 462.34375 949.140625 464.057312 L 947.916687 464.598938 C 942.682312 466.927063 937.453125 469.255188 932.229187 471.598938 C 926.807312 474.03125 921.369812 476.442688 915.9375 478.854187 C 913.395813 479.984375 910.848938 481.114563 908.307312 482.244812 C 900.354187 485.786438 892.395813 489.307281 884.427063 492.807281 L 883.296875 493.302094 C 882.255188 493.760406 881.213562 494.21875 880.171875 494.677094 L 879.239563 495.088531 C 876.963562 496.083344 875.3125 496.65625 872.802063 496.479156 C 871.630188 495.984375 871.630188 495.984375 870.713562 495.229156 C 870.036438 494.067719 869.885437 493.229156 869.807312 491.885406 C 869.901062 489.828125 870.322937 487.942688 870.802063 485.9375 L 871.09375 484.666687 C 871.416687 483.286438 871.744812 481.901062 872.072937 480.515625 L 872.760437 477.557312 C 874.411438 470.536438 876.083313 463.515625 877.776062 456.505188 C 879.619812 448.875 881.4375 441.239563 883.255188 433.604187 C 883.895813 430.916687 884.541687 428.223938 885.182312 425.536438 L 886.25 421.052063 L 886.515625 419.947937 C 887.479187 415.901062 888.4375 411.854187 889.385437 407.807312 C 889.807312 406 890.234375 404.197937 890.661438 402.390625 C 890.932312 401.239563 891.197937 400.083313 891.463562 398.927063 C 893.28125 391.161438 893.28125 391.161438 895.067688 389.161438 C 897.333313 387.145813 899.822937 386.286438 902.822937 386.895813"/>
    <path id="path4" fill="#184d87" stroke="none" d="M 673.958313 433.880188 L 675.052063 433.869812 C 687.697937 433.755188 702.09375 433.953125 713.921875 438.979187 C 712.755188 443.828125 711.447937 448.635437 710.057312 453.427063 C 709.833313 454.208313 709.609375 454.984375 709.390625 455.765625 C 709.067688 456.90625 708.739563 458.046875 708.40625 459.1875 L 708.114563 460.25 C 707.864563 461.088562 707.5625 461.911438 707.25 462.729187 L 706 463.145813 C 705.177063 462.953125 705.177063 462.953125 704.239563 462.609375 L 703.177063 462.229187 L 702.036438 461.817688 C 697.854187 460.364563 693.677063 459.322937 689.317688 458.5625 L 687.989563 458.317688 C 680.90625 457.552063 673.020813 457.442688 666.359375 460.203125 C 663.78125 461.484375 661.833313 462.869812 660.130188 465.229187 C 659.203125 467.130188 659.088562 469.036438 659.145813 471.119812 C 659.40625 473.208313 660.1875 474.765625 661.380188 476.479187 C 665.401062 481.578125 671.53125 484.927063 676.880188 488.458344 C 685.03125 493.84375 693.182312 499.755219 697.791687 508.614594 C 700.734375 514.645874 701.015625 520.708374 700.578125 527.3125 C 700.015625 533.682251 697.90625 539.390625 694.427063 544.760376 C 690.109375 550.75 684.463562 554.984375 677.802063 558.125 C 673.328125 560.098999 668.614563 561.458374 663.828125 562.442749 L 662.927063 562.630249 C 656.322937 563.869751 649.6875 564.114624 642.984375 564.088501 C 641.671875 564.083374 640.359375 564.088501 639.052063 564.09375 C 632.911438 564.098999 627.067688 563.822876 621.166687 561.947876 L 620.130188 561.640625 C 617.901062 560.958374 615.901062 560.072876 613.84375 558.979126 C 614.09375 555.927124 614.739563 553.09375 615.53125 550.140625 L 615.916687 548.703125 C 616.182312 547.703125 616.447937 546.708374 616.713562 545.713501 C 617.125 544.182251 617.53125 542.651001 617.932312 541.119751 L 618.713562 538.213501 L 619.078125 536.817749 L 619.427063 535.541626 L 619.729187 534.411499 L 620.098938 533.5625 L 621.348938 533.145874 C 622.098938 533.458374 622.098938 533.458374 622.9375 533.958374 C 623.401062 534.229126 623.401062 534.229126 623.875 534.510376 L 624.864563 535.098999 C 627.786438 536.776001 630.5625 538.192749 633.859375 538.979126 L 635.03125 539.260376 C 642.135437 540.630249 650.0625 540.359375 656.942688 538.104126 C 659.5 537.119751 661.953125 535.963501 663.880188 533.979126 C 665.390625 531.854126 666.21875 529.869751 666.46875 527.270874 C 666.526062 524.744751 666.182312 522.541626 665.135437 520.229126 C 661.114563 513.390625 654.119812 509.682281 647.604187 505.567719 C 643.135437 502.734375 638.942688 499.734375 635.109375 496.0625 L 634.015625 495.020844 L 633.026062 493.979156 L 632.276062 493.255219 C 629.052063 489.947906 626.911438 485.666687 625.541687 481.270813 C 624.104187 475 624.489563 468.213562 626.197937 462.026062 C 628.270813 455.984375 631.666687 450.796875 636.421875 446.520813 C 644.828125 439.359375 654.958313 436.578125 665.583313 434.598938 C 668.359375 434.140625 671.151062 433.901062 673.958313 433.880188"/>
    <path id="path5" fill="#e77929" stroke="none" d="M 931.598938 476.479187 C 933.255188 477.380188 934.541687 478.411438 935.614563 479.96875 C 936.265625 481.125 936.859375 482.291687 937.4375 483.484375 L 938.083313 484.776062 C 939.453125 487.510437 940.776062 490.265625 942.057312 493.041656 C 942.927063 494.916656 943.828125 496.78125 944.760437 498.630219 L 945.1875 499.484375 L 946.114563 501.328125 C 947.588562 504.260406 949.057312 507.192719 950.53125 510.125 C 950.921875 510.901031 951.3125 511.682281 951.703125 512.458374 C 953.859375 516.755249 955.994812 521.057251 958.057312 525.401001 C 960.427063 530.380249 962.895813 535.307251 965.375 540.229126 C 968.302063 546.036499 971.182312 551.854126 973.96875 557.723999 C 975.083313 560.067749 976.239563 562.390625 977.40625 564.708374 C 978.010437 566.421875 978.026062 567.588501 977.885437 569.395874 C 977.104187 570.619751 977.104187 570.619751 976.21875 571.479126 C 974.588562 572.296875 972.708313 572.088501 970.916687 571.989624 C 967.557312 571.666626 964.239563 570.859375 960.9375 570.166626 C 959.328125 569.828125 957.708313 569.494751 956.09375 569.166626 L 955.239563 568.994751 L 953.479187 568.635376 C 952.567688 568.447876 951.661438 568.265625 950.75 568.078125 C 943.802063 566.65625 936.84375 565.307251 929.885437 563.953125 C 926.03125 563.203125 922.171875 562.453125 918.317688 561.703125 L 917.135437 561.46875 C 907.96875 559.682251 898.8125 557.880249 889.651062 556.067749 L 886.088562 555.364624 C 882.041687 554.567749 878 553.765625 873.958313 552.958374 C 871.71875 552.515625 869.484375 552.072876 867.244812 551.640625 C 865.734375 551.34375 864.223938 551.046875 862.713562 550.744751 C 862 550.604126 861.291687 550.46875 860.578125 550.328125 C 859.59375 550.140625 858.614563 549.947876 857.630188 549.75 L 856.765625 549.588501 C 854.84375 549.192749 853.510437 548.489624 851.953125 547.3125 C 851.140625 546.583374 851.140625 546.583374 850.697937 545.645874 C 850.630188 544.260376 850.640625 543.578125 851.114563 542.3125 C 852.921875 539.713501 855.375 537.666626 857.786438 535.645874 C 858.729187 534.848999 859.666687 534.052124 860.604187 533.25 L 861.364563 532.604126 C 863.458313 530.807251 865.494812 528.953125 867.520813 527.083374 C 869.401062 525.354126 871.333313 523.6875 873.276062 522.036499 C 876.25 519.505249 879.166687 516.916626 882.026062 514.260376 C 883.9375 512.489624 885.901062 510.791656 887.885437 509.104156 C 890.739563 506.677094 893.541687 504.213531 896.291687 501.671875 C 897.484375 500.583344 898.692688 499.510406 899.916687 498.453125 C 900.869812 497.619781 901.807312 496.760406 902.744812 495.90625 C 904.15625 494.635406 905.59375 493.421875 907.072937 492.234375 C 909.005188 490.677094 910.822937 489.020844 912.625 487.3125 C 914.78125 485.276062 916.973938 483.338562 919.302063 481.494812 C 920.34375 480.645813 921.3125 479.744812 922.291687 478.822937 C 923.630188 477.635437 924.828125 476.729187 926.552063 476.208313 C 928.296875 475.921875 929.921875 475.911438 931.598938 476.479187"/>
    <path id="path6" fill="#184d87" stroke="none" d="M 345.708344 379.8125 L 377.817719 379.8125 C 377.557281 382.6875 377.286469 385.328125 376.677094 388.109375 L 376.453125 389.151062 C 376.213531 390.286438 375.96875 391.416687 375.723969 392.552063 C 375.546875 393.364563 375.375 394.182312 375.203125 394.994812 C 374.828125 396.739563 374.458344 398.484375 374.083344 400.223938 C 373.484375 403.005188 372.885406 405.791687 372.291656 408.572937 C 371.682281 411.447937 371.067719 414.322937 370.447906 417.197937 C 368.677094 425.505188 366.911469 433.8125 365.161469 442.130188 C 364.354156 445.958313 363.546875 449.786438 362.734375 453.614563 L 362.489594 454.776062 C 359.494781 468.963562 356.479156 483.151062 353.463531 497.333344 C 352.484375 501.953125 351.5 506.572906 350.520844 511.192719 C 348.416656 521.135376 346.302094 531.072876 344.177094 541.005249 C 342.744781 547.692749 341.307281 554.380249 339.869781 561.0625 L 307.34375 561.0625 C 308.28125 555.4375 308.28125 555.4375 308.817719 552.927124 L 308.994781 552.078125 C 309.1875 551.15625 309.385406 550.229126 309.583344 549.307251 L 310.015625 547.260376 C 310.411469 545.385376 310.8125 543.510376 311.208344 541.630249 C 311.640625 539.59375 312.072906 537.557251 312.505219 535.520874 C 313.59375 530.390625 314.682281 525.255249 315.770844 520.125 L 317.317719 512.828125 C 319.375 503.135406 321.432281 493.447906 323.489594 483.755188 L 324.614594 478.453125 C 327.161469 466.484375 329.697906 454.515625 332.234375 442.546875 C 333.5 436.578125 334.765625 430.604187 336.026031 424.635437 L 336.286469 423.421875 L 336.541656 422.208313 L 339.822906 406.713562 C 341.291656 399.796875 342.760406 392.880188 344.229156 385.963562 L 344.541656 384.494812 C 344.635406 384.057312 344.729156 383.619812 344.822906 383.166687 L 345.067719 382.020813 C 345.291656 381.0625 345.291656 381.0625 345.708344 379.8125 M 246.515625 433.848938 L 248.145828 433.848938 C 251.166672 433.864563 253.958328 434.098938 256.885406 434.8125 C 256.651031 438.234375 255.994797 441.526062 255.270828 444.875 L 254.916672 446.552063 C 254.666672 447.713562 254.416672 448.875 254.166672 450.041687 C 253.848953 451.526062 253.53125 453.015625 253.21875 454.5 C 252.973953 455.651062 252.723953 456.802063 252.479172 457.953125 C 252.307297 458.765625 252.130203 459.578125 251.958328 460.395813 L 251.635422 461.895813 L 251.354172 463.208313 C 251.0625 464.354187 250.682297 465.395813 250.213547 466.479187 L 249.302078 466.3125 L 248.078125 466.088562 L 246.875 465.869812 L 245.630203 465.645813 L 244.520828 465.421875 C 238.15625 464.557312 231.59375 464.859375 225.604172 467.229187 C 219.755203 469.677063 215.208328 473.380188 211.359375 478.395813 C 209.473953 480.958313 207.895828 483.661438 206.432297 486.479187 L 205.864578 487.557312 C 202.989578 493.453125 201.348953 499.822906 199.958328 506.197906 L 199.75 507.145844 C 197.28125 518.328125 195.020828 529.557251 192.713547 540.776001 C 192.203125 543.260376 191.692703 545.744751 191.177078 548.229126 C 190.984375 549.166626 190.791672 550.104126 190.598953 551.041626 C 190.333328 552.338501 190.067703 553.630249 189.802078 554.927124 L 189.5625 556.083374 L 189.34375 557.15625 L 189.151047 558.078125 C 188.916672 558.979126 188.916672 558.979126 188.083328 561.0625 L 155.973953 561.0625 C 156.442703 556.84375 156.442703 556.84375 156.796875 555.130249 L 157.041672 553.942749 L 157.307297 552.677124 L 157.588547 551.307251 C 157.901047 549.796875 158.213547 548.286499 158.526047 546.78125 L 159.197922 543.536499 C 159.677078 541.21875 160.15625 538.901001 160.640625 536.578125 C 161.333328 533.223999 162.03125 529.869751 162.723953 526.515625 C 164.984375 515.5625 167.255203 504.609375 169.53125 493.661469 C 170.135422 490.755219 170.739578 487.848938 171.34375 484.947937 L 171.520828 484.09375 L 172.21875 480.723938 C 172.833328 477.755188 173.453125 474.786438 174.072922 471.817688 C 174.697922 468.8125 175.322922 465.8125 175.942703 462.807312 L 176.239578 461.395813 C 177.557297 455.005188 178.796875 448.609375 179.848953 442.177063 L 180.109375 440.614563 L 180.322922 439.276062 C 180.578125 438.145813 180.578125 438.145813 181.411453 436.479187 L 211.432297 436.479187 C 211.791672 438.276062 211.880203 438.953125 211.546875 440.630188 C 211.46875 441.03125 211.395828 441.427063 211.3125 441.838562 L 211.057297 443.130188 L 210.796875 444.463562 C 210.526047 445.864563 210.25 447.265625 209.973953 448.666687 C 209.697922 450.078125 209.421875 451.484375 209.151047 452.895813 C 208.979172 453.770813 208.807297 454.645813 208.635422 455.520813 L 208.401047 456.713562 C 208.333328 457.0625 208.265625 457.411438 208.192703 457.770813 L 208.098953 458.5625 L 208.515625 458.979187 L 208.838547 458.244812 C 212.15625 451.145813 217.729172 445.432312 224.046875 440.932312 C 226.536453 439.229187 229.161453 437.760437 231.916672 436.53125 L 232.6875 436.1875 C 237.234375 434.255188 241.598953 433.791687 246.515625 433.848938"/>
    <path id="path7" fill="#e77929" stroke="none" d="M 907.411438 561.479126 C 909.244812 562.432251 910.421875 563.53125 911.583313 565.229126 C 912.401062 566.90625 912.515625 568.25 912.494812 570.104126 L 912.484375 570.927124 C 912.432312 574.296875 912.197937 577.661499 911.96875 581.026001 L 911.828125 583.208374 C 911.697937 585.161499 911.567688 587.114624 911.432312 589.067749 C 911.322937 590.703125 911.213562 592.34375 911.104187 593.979126 C 910.84375 597.848999 910.583313 601.713501 910.322937 605.578125 C 910.057312 609.557251 909.786438 613.53125 909.526062 617.505249 C 909.296875 620.932251 909.067688 624.359375 908.838562 627.786499 C 908.697937 629.828125 908.5625 631.869751 908.427063 633.911499 C 908.302063 635.828125 908.171875 637.75 908.036438 639.666626 C 907.989563 640.364624 907.942688 641.067749 907.901062 641.765625 C 907.171875 652.791626 907.171875 652.791626 906 655.130249 C 905.328125 656.0625 905.328125 656.0625 904.078125 656.895874 C 902.71875 657.052124 902.71875 657.052124 901.15625 656.895874 C 898.770813 655.864624 897.072937 654.239624 895.177063 652.484375 C 894.104187 651.515625 893.005188 650.609375 891.880188 649.708374 C 889.765625 648 887.786438 646.177124 885.807312 644.3125 C 884.010437 642.630249 882.140625 641.067749 880.213562 639.526001 C 878.635437 638.213501 877.145813 636.817749 875.651062 635.411499 C 874.270813 634.125 872.84375 632.895874 871.369812 631.713501 C 869.276062 630.036499 867.328125 628.234375 865.375 626.395874 C 863.578125 624.713501 861.708313 623.151001 859.78125 621.609375 C 858.447937 620.5 857.177063 619.333374 855.911438 618.145874 C 854.286438 616.625 852.645813 615.166626 850.90625 613.770874 C 848.65625 611.963501 846.552063 610.020874 844.4375 608.052124 C 842.510437 606.260376 840.520813 604.546875 838.520813 602.838501 L 837.015625 601.557251 L 836.25 600.90625 C 834.692688 599.572876 833.15625 598.208374 831.645813 596.817749 C 830.223938 595.510376 828.755188 594.25 827.244812 593.041626 C 825.255188 591.4375 823.359375 589.75 821.484375 588.015625 L 820.65625 587.260376 L 819.880188 586.536499 L 819.1875 585.895874 C 818.520813 585.151001 818.135437 584.489624 817.755188 583.5625 C 817.489563 581.447876 817.489563 581.447876 817.755188 580.229126 C 818.8125 579.015625 819.598938 578.416626 821.072937 577.817749 C 823.453125 577.026001 825.838562 576.463501 828.296875 575.973999 L 829.552063 575.723999 C 830.921875 575.447876 832.291687 575.171875 833.661438 574.901001 C 834.635437 574.703125 835.614563 574.505249 836.588562 574.3125 C 839.197937 573.786499 841.807312 573.260376 844.416687 572.739624 C 846.572937 572.3125 848.729187 571.880249 850.885437 571.447876 C 854.677063 570.6875 858.46875 569.927124 862.260437 569.171875 C 867.932312 568.041626 873.604187 566.901001 879.270813 565.75 C 881.864563 565.223999 884.463562 564.697876 887.0625 564.177124 C 888.739563 563.838501 890.416687 563.5 892.09375 563.15625 C 893.635437 562.838501 895.182312 562.53125 896.729187 562.223999 C 897.536438 562.0625 898.34375 561.895874 899.151062 561.723999 C 901.96875 561.171875 904.578125 560.822876 907.411438 561.479126"/>
    <path id="path8" fill="#184d87" stroke="none" d="M 276.901031 436.479187 C 277.880219 436.442688 278.84375 436.427063 279.822906 436.432312 L 280.744781 436.432312 C 281.760406 436.432312 282.770844 436.4375 283.786469 436.442688 L 285.885406 436.442688 C 287.734375 436.442688 289.583344 436.447937 291.432281 436.453125 C 293.3125 436.458313 295.197906 436.458313 297.083344 436.458313 C 300.78125 436.463562 304.479156 436.473938 308.177094 436.479187 C 308.713531 438.328125 308.442719 439.854187 308.03125 441.6875 L 307.833344 442.625 C 307.619781 443.65625 307.395844 444.682312 307.171875 445.708313 L 306.703125 447.895813 C 306.286469 449.848938 305.864594 451.802063 305.442719 453.755188 C 305.005219 455.786438 304.567719 457.822937 304.135406 459.854187 C 302.057281 469.541687 299.958344 479.223938 297.828125 488.901031 C 296.4375 495.260406 295.072906 501.619781 293.739594 507.989594 L 293.442719 509.40625 L 292.1875 515.390625 C 290.75 522.229126 289.307281 529.067749 287.859375 535.90625 C 287.4375 537.90625 287.015625 539.90625 286.59375 541.911499 C 286.192719 543.802124 285.791656 545.697876 285.390625 547.59375 L 284.942719 549.697876 C 284.739594 550.671875 284.536469 551.651001 284.328125 552.625 L 284.151031 553.458374 C 283.609375 556.015625 282.958344 558.520874 282.322906 561.0625 L 249.796875 561.0625 C 252.21875 548.963501 252.21875 548.963501 253.291672 543.916626 L 253.546875 542.723999 L 253.8125 541.479126 L 254.390625 538.765625 C 259.046875 516.807251 263.75 494.859375 268.463531 472.916687 L 269.385406 468.614563 C 270.239594 464.635437 271.088531 460.661438 271.9375 456.682312 L 273.15625 450.947937 C 273.375 449.927063 273.59375 448.90625 273.807281 447.885437 C 274.104156 446.494812 274.401031 445.109375 274.697906 443.71875 L 274.953125 442.494812 C 275.364594 440.583313 275.791656 438.723938 276.484375 436.895813 Z M 276.901031 436.479187"/>
    <path id="path9" fill="#e77929" stroke="none" d="M 781.494812 596.765625 C 784.541687 596.723999 787.114563 597.458374 789.989563 598.411499 L 791.489563 598.890625 C 792.552063 599.234375 793.614563 599.578125 794.677063 599.921875 C 796.354187 600.473999 798.03125 601.015625 799.708313 601.552124 C 801.421875 602.104126 803.135437 602.65625 804.848938 603.208374 C 809.671875 604.770874 814.510437 606.286499 819.354187 607.786499 C 826.708313 610.067749 834.0625 612.369751 841.380188 614.776001 C 842.395813 615.104126 843.40625 615.432251 844.427063 615.75 L 846.098938 616.28125 L 847.614563 616.760376 C 849.375 617.447876 850.864563 618.328125 852.21875 619.645874 C 853.036438 620.671875 853.614563 621.473999 854.036438 622.729126 C 854.25 624.15625 854.223938 625.46875 854.036438 626.895874 C 852.661438 630.354126 850.598938 633.479126 848.536438 636.557251 L 846.859375 639.09375 L 846.041687 640.333374 C 845.020813 641.869751 844.010437 643.416626 843.010437 644.96875 L 842.473938 645.802124 C 840.776062 648.427124 839.09375 651.0625 837.40625 653.692749 C 834.697937 657.927124 831.96875 662.151001 829.21875 666.359375 C 828.041687 668.171875 826.864563 669.984375 825.692688 671.802124 C 824.734375 673.28125 823.78125 674.755249 822.822937 676.234375 C 821.869812 677.71875 820.911438 679.192749 819.947937 680.671875 C 819.453125 681.4375 818.958313 682.208374 818.46875 682.979126 L 817.598938 684.317749 L 816.859375 685.473999 C 816.010437 686.578125 815.135437 687.338501 814.005188 688.145874 C 812.958313 688.510376 812.958313 688.510376 811.916687 688.5625 C 810.875 688.328125 810.875 688.328125 809.833313 687.729126 C 807.557312 685.510376 806.75 682.875 805.713562 679.916626 C 805.520813 679.369751 805.322937 678.822876 805.130188 678.276001 C 804.697937 677.078125 804.270813 675.880249 803.848938 674.682251 C 803.125 672.630249 802.395813 670.588501 801.661438 668.541626 C 800.729187 665.9375 799.796875 663.333374 798.869812 660.729126 C 797.359375 656.489624 795.833313 652.25 794.302063 648.015625 C 791.848938 641.239624 789.411438 634.458374 786.984375 627.671875 C 785.317688 623.026001 783.651062 618.375 781.958313 613.734375 L 781.59375 612.744751 C 781.057312 611.265625 780.515625 609.786499 779.96875 608.3125 L 779.416687 606.791626 L 778.9375 605.5 C 778.260437 603.53125 777.994812 601.916626 778.140625 599.8125 C 778.6875 598.640625 778.6875 598.640625 779.390625 597.729126 C 780.640625 596.895874 780.640625 596.895874 781.494812 596.765625 M 746.317688 604.8125 C 749.802063 605.864624 752.46875 608.552124 755.020813 611.036499 C 757.015625 612.953125 759.015625 614.838501 761.104187 616.645874 C 762.197937 617.59375 763.260437 618.572876 764.328125 619.552124 C 766.552063 621.598999 768.796875 623.630249 771.052063 625.645874 L 774.182312 628.463501 C 774.864563 629.078125 775.552063 629.692749 776.234375 630.307251 C 777.723938 631.640625 779.208313 632.973999 780.677063 634.328125 L 781.34375 634.942749 C 781.963562 635.510376 782.583313 636.083374 783.203125 636.65625 C 784.036438 637.40625 784.869812 638.130249 785.739563 638.838501 C 787.036438 639.932251 787.770813 640.8125 788.567688 642.3125 C 789.140625 644 789.536438 645.609375 789.260437 647.385376 C 788.552063 649.53125 787.234375 651.15625 785.645813 652.729126 C 784.541687 653.578125 783.375 654.286499 782.182312 654.994751 C 781.473938 655.432251 780.765625 655.864624 780.0625 656.296875 L 778.921875 656.994751 C 776.765625 658.322876 774.640625 659.697876 772.510437 661.0625 C 769.119812 663.239624 765.71875 665.401001 762.3125 667.546875 C 760.171875 668.895874 758.03125 670.25 755.895813 671.609375 C 754.359375 672.588501 752.822937 673.567749 751.28125 674.546875 C 750.583313 674.989624 749.880188 675.4375 749.182312 675.880249 C 748.260437 676.463501 747.34375 677.046875 746.421875 677.625 L 745.619812 678.140625 C 742.401062 680.161499 742.401062 680.161499 740.567688 680.296875 C 739.708313 680.203125 738.932312 680.078125 738.109375 679.8125 C 737.09375 678.953125 737.09375 678.953125 736.442688 677.729126 C 735.8125 674.604126 736.166687 671.552124 736.442688 668.395874 L 736.59375 666.583374 C 736.729187 664.953125 736.864563 663.322876 737.005188 661.692749 C 737.151062 659.979126 737.296875 658.270874 737.4375 656.557251 C 737.614563 654.421875 737.791687 652.28125 737.973938 650.140625 C 738.369812 645.427124 738.760437 640.713501 739.135437 635.994751 C 739.302063 633.911499 739.46875 631.833374 739.640625 629.75 C 739.770813 628.088501 739.90625 626.427124 740.036438 624.765625 C 740.161438 623.203125 740.286438 621.640625 740.416687 620.078125 C 740.484375 619.239624 740.552063 618.401001 740.614563 617.5625 C 741.34375 608.744751 741.34375 608.744751 742.645813 606.635376 C 743.53125 605.645874 743.53125 605.645874 744.3125 605.046875 C 745.197937 604.8125 745.197937 604.8125 746.317688 604.8125 M 713.583313 606.010376 C 715.171875 606.479126 715.171875 606.479126 715.979187 607.208374 C 717.911438 609.40625 719.4375 611.614624 720.828125 614.1875 C 721.260437 614.963501 721.6875 615.734375 722.119812 616.505249 C 722.34375 616.90625 722.567688 617.307251 722.802063 617.723999 C 724.046875 619.921875 725.359375 622.078125 726.666687 624.239624 C 728.609375 627.458374 730.536438 630.682251 732.427063 633.927124 L 733.005188 634.921875 L 733.53125 635.828125 L 733.984375 636.609375 C 734.864563 638.28125 734.911438 639.791626 734.885437 641.635376 C 734.744812 643.005249 734.354187 644.046875 733.755188 645.276001 C 732.59375 646.682251 731.078125 647.770874 729.401062 648.479126 C 728.5625 648.75 727.723938 648.984375 726.869812 649.208374 L 725.911438 649.473999 C 724.880188 649.755249 723.84375 650.036499 722.8125 650.307251 C 722.088562 650.505249 721.364563 650.703125 720.640625 650.901001 C 719.526062 651.208374 718.411438 651.510376 717.291687 651.8125 C 714.744812 652.505249 712.208313 653.21875 709.671875 653.953125 L 706.651062 654.822876 C 706.015625 655.005249 705.380188 655.192749 704.744812 655.380249 C 697.760437 657.432251 697.760437 657.432251 694.322937 656.895874 C 693.020813 656.114624 693.020813 656.114624 692.239563 655.229126 C 691.661438 654.078125 691.692688 652.994751 691.708313 651.723999 C 691.916687 649.760376 692.682312 648.03125 693.442688 646.223999 L 693.953125 644.953125 C 694.505188 643.59375 695.067688 642.239624 695.625 640.880249 C 696.010437 639.942749 696.390625 639.005249 696.776062 638.0625 C 697.723938 635.739624 698.677063 633.411499 699.635437 631.09375 C 700.260437 629.572876 700.885437 628.052124 701.505188 626.53125 C 702.78125 623.421875 704.057312 620.317749 705.354187 617.21875 C 705.828125 616.067749 706.286438 614.916626 706.734375 613.760376 L 707.114563 612.796875 C 707.359375 612.182251 707.59375 611.567749 707.828125 610.947876 C 708.578125 609.0625 709.411438 607.8125 711.005188 606.479126 C 712.255188 606.0625 712.255188 606.0625 713.583313 606.010376"/>
    <path id="path10" fill="#184d87" stroke="none" d="M 288.161469 383.145813 L 320.270844 383.145813 L 320.6875 383.979187 C 320.578125 384.8125 320.578125 384.8125 320.348969 385.84375 L 320.088531 387.015625 L 319.796875 388.296875 L 319.505219 389.630188 C 319.1875 391.046875 318.869781 392.463562 318.552094 393.875 L 317.9375 396.645813 C 316.645844 402.427063 315.328125 408.203125 314.015625 413.979187 L 281.489594 413.979187 C 282.427094 408.354187 282.427094 408.354187 282.911469 406.177063 L 283.234375 404.697937 L 283.578125 403.161438 L 283.9375 401.536438 C 284.182281 400.411438 284.432281 399.291687 284.682281 398.171875 C 285 396.734375 285.317719 395.296875 285.635406 393.859375 C 285.9375 392.479187 286.244781 391.098938 286.546875 389.723938 L 286.890625 388.161438 L 287.213531 386.71875 L 287.494781 385.447937 C 287.744781 384.395813 287.744781 384.395813 288.161469 383.145813"/>
    <path id="path11" fill="#e77929" stroke="none" d="M 686.869812 603.692749 C 688.484375 603.979126 688.484375 603.979126 689.630188 604.786499 C 691.901062 607.869751 693.020813 611.744751 694.322937 615.317749 C 694.53125 615.885376 694.744812 616.447876 694.958313 617.010376 C 696.369812 620.713501 697.322937 624.125 696.822937 628.145874 C 696.447937 629.46875 696.078125 629.958374 695.15625 631.0625 C 693.786438 632.322876 692.427063 633 690.619812 633.447876 C 689.213562 633.682251 687.817688 633.84375 686.401062 633.979126 L 684.984375 634.119751 C 683.369812 634.255249 681.760437 634.338501 680.145813 634.395874 L 679.010437 634.442749 C 677.78125 634.479126 676.552063 634.505249 675.322937 634.526001 L 674.135437 634.567749 C 671.411438 634.588501 671.411438 634.588501 670.15625 634.046875 C 669.473938 633.609375 669.473938 633.609375 668.46875 632.729126 C 667.942688 631.677124 667.864563 630.729126 667.880188 629.5625 C 668.479187 626.09375 671.3125 622.729126 673.265625 619.864624 L 674.802063 617.588501 L 675.59375 616.421875 C 676.395813 615.223999 677.1875 614.015625 677.96875 612.807251 L 678.744812 611.619751 C 679.229187 610.869751 679.713562 610.119751 680.192688 609.369751 C 683.770813 603.911499 683.770813 603.911499 686.869812 603.692749 M 667.666687 600.895874 C 668.46875 601.0625 668.46875 601.0625 669.640625 601.895874 C 671.03125 603.802124 671.729187 605.859375 672.223938 608.145874 C 672.40625 609.895874 672.453125 611.578125 671.921875 613.270874 C 671.28125 614.645874 670.630188 615.572876 669.536438 616.635376 C 667.942688 617.645874 666.609375 618.1875 664.71875 618.270874 C 664.098938 618.28125 663.484375 618.28125 662.864563 618.276001 L 661.932312 618.296875 C 660.380188 618.302124 659.338562 618.166626 657.869812 617.588501 C 656.791687 616.895874 656.791687 616.895874 655.984375 615.723999 C 655.541687 614.395874 655.541687 614.395874 655.515625 613.223999 C 656.166687 611.270874 657.239563 609.796875 658.463562 608.145874 L 658.994812 607.427124 C 659.583313 606.640625 660.182312 605.854126 660.78125 605.072876 L 661.359375 604.307251 C 663.109375 602.072876 664.729187 600.760376 667.666687 600.895874 M 819.84375 328.145813 L 821.09375 328.5625 C 820.5625 329.036438 820.03125 329.505188 819.505188 329.96875 L 818.609375 330.760437 C 817.755188 331.479187 817.755188 331.479187 816.505188 332.3125 C 816.807312 331.255188 817.15625 330.432312 817.90625 329.614563 C 818.5625 329.03125 818.5625 329.03125 819.84375 328.145813"/>
</svg>