<?xml version="1.0" standalone="no"?>
<!DOCTYPE svg PUBLIC "-//W3C//DTD SVG 1.1//EN" "http://www.w3.org/Graphics/SVG/1.1/DTD/svg11.dtd">
<svg xmlns="http://www.w3.org/2000/svg" xmlns:xlink="http://www.w3.org/1999/xlink" width="750" zoomAndPan="magnify" viewBox="0 0 750 749.999995" height="750" preserveAspectRatio="xMidYMid meet" version="1.0"><path fill="#ffffff" d="M 388.136719 284.859375 C 388.898438 284.832031 389.648438 284.820312 390.410156 284.824219 L 391.132812 284.824219 C 391.921875 284.824219 392.710938 284.828125 393.503906 284.832031 L 395.140625 284.832031 C 396.582031 284.832031 398.023438 284.835938 399.464844 284.839844 C 400.933594 284.84375 402.40625 284.84375 403.875 284.84375 C 406.757812 284.847656 409.644531 284.855469 412.53125 284.859375 C 412.84375 285.796875 412.84375 285.796875 412.71875 286.601562 L 412.484375 287.585938 L 412.21875 288.71875 L 411.917969 289.96875 L 411.609375 291.285156 C 411.386719 292.238281 411.160156 293.1875 410.933594 294.140625 C 410.574219 295.652344 410.214844 297.164062 409.859375 298.679688 L 409.675781 299.457031 L 409.304688 301.042969 L 408.726562 303.492188 C 407.34375 309.367188 405.988281 315.25 404.640625 321.132812 C 404.308594 322.574219 403.980469 324.011719 403.648438 325.449219 C 403.398438 326.53125 403.152344 327.613281 402.902344 328.699219 L 402.554688 330.207031 C 402.394531 330.898438 402.238281 331.589844 402.082031 332.28125 L 401.8125 333.453125 C 401.585938 334.542969 401.417969 335.632812 401.269531 336.734375 C 402.734375 335.5 402.734375 335.5 404.148438 334.207031 C 408.464844 330.148438 413.601562 327.441406 419.335938 326.027344 L 420.347656 325.796875 L 421.0625 325.632812 C 427.105469 324.585938 434.101562 325.3125 439.847656 327.300781 C 444.023438 328.855469 447.472656 331.167969 450.6875 334.234375 L 451.269531 334.746094 C 454.9375 338.089844 457.292969 343.316406 458.765625 347.941406 C 459.183594 349.375 459.519531 350.824219 459.835938 352.28125 L 459.988281 353 C 460.683594 356.417969 460.769531 359.855469 460.773438 363.335938 L 460.773438 363.996094 C 460.753906 376.34375 457.792969 388.679688 451.722656 399.476562 C 449.511719 403.289062 446.832031 406.65625 443.804688 409.859375 L 443.097656 410.628906 C 438.464844 415.488281 432.332031 419.171875 425.902344 421.113281 C 418.179688 423.144531 409.457031 424.230469 401.617188 422.207031 C 397.398438 421.042969 394.164062 419.058594 391.09375 415.96875 C 388.835938 413.574219 387.019531 410.792969 385.320312 407.984375 C 383.929688 412.15625 383.132812 416.503906 382.191406 420.796875 L 359.363281 420.796875 C 359.566406 418.953125 359.800781 417.203125 360.183594 415.402344 L 360.335938 414.667969 C 360.503906 413.875 360.667969 413.078125 360.839844 412.28125 L 361.195312 410.578125 C 361.445312 409.382812 361.695312 408.191406 361.949219 406.996094 C 362.261719 405.507812 362.574219 404.015625 362.886719 402.527344 C 364.210938 396.199219 365.570312 389.882812 366.960938 383.570312 C 367.921875 379.226562 368.847656 374.875 369.738281 370.519531 C 370.132812 368.585938 370.535156 366.652344 370.933594 364.714844 L 371.175781 363.535156 C 372.34375 357.875 373.546875 352.222656 374.75 346.570312 C 375.363281 343.691406 375.972656 340.816406 376.582031 337.941406 C 378.128906 330.644531 379.675781 323.351562 381.226562 316.054688 C 381.738281 313.660156 382.246094 311.261719 382.753906 308.867188 C 383.382812 305.898438 384.015625 302.933594 384.648438 299.964844 C 384.976562 298.414062 385.304688 296.867188 385.636719 295.316406 C 385.941406 293.875 386.246094 292.4375 386.554688 290.996094 C 386.664062 290.46875 386.777344 289.941406 386.890625 289.414062 C 387.039062 288.699219 387.191406 287.984375 387.347656 287.269531 L 387.605469 286.058594 L 387.824219 285.171875 Z M 406.976562 347.9375 C 401.667969 351.992188 398.515625 357.582031 395.953125 363.609375 C 392.882812 371.1875 391.816406 379.8125 392.730469 387.925781 C 393.398438 392.207031 394.808594 396.054688 397.285156 399.625 C 398.917969 401.257812 400.851562 402.722656 403.074219 403.4375 C 406.957031 404.40625 410.75 404.5 414.621094 403.394531 C 418.285156 402.140625 421.339844 400.394531 424.101562 397.671875 L 424.101562 397.046875 L 424.726562 397.046875 C 430.371094 390.570312 432.921875 382.464844 434.554688 374.1875 C 435.722656 367.96875 435.90625 361.40625 434.089844 355.308594 C 433.054688 352.382812 431.429688 349.863281 429.183594 347.691406 C 427.128906 346.042969 424.402344 344.777344 421.796875 344.3125 C 416.242188 343.792969 411.648438 344.8125 406.976562 347.9375 M 50.050781 294.546875 C 54.402344 294.527344 58.757812 294.511719 63.109375 294.5 C 65.132812 294.496094 67.15625 294.488281 69.179688 294.476562 C 101.140625 294.3125 101.140625 294.3125 113.617188 301.40625 C 117.382812 303.664062 120.816406 306.734375 123.0625 310.527344 C 126.574219 316.996094 127.230469 323.398438 127.082031 330.648438 C 126.851562 337.871094 124.480469 344.96875 120.730469 351.109375 C 116.320312 357.777344 110.265625 362.914062 103.171875 366.535156 C 94.371094 370.84375 84.890625 372.726562 75.148438 372.800781 C 74.671875 372.808594 74.195312 372.816406 73.71875 372.820312 C 72.484375 372.835938 71.253906 372.847656 70.019531 372.859375 C 68.75 372.875 67.484375 372.890625 66.21875 372.90625 C 63.75 372.933594 61.277344 372.960938 58.808594 372.984375 L 58.683594 374.226562 C 58.523438 375.65625 58.269531 377.042969 57.96875 378.445312 L 57.808594 379.203125 C 57.636719 380.023438 57.460938 380.84375 57.285156 381.664062 C 57.160156 382.25 57.039062 382.832031 56.914062 383.417969 C 56.585938 384.972656 56.253906 386.527344 55.921875 388.078125 C 55.652344 389.359375 55.378906 390.640625 55.109375 391.921875 C 54.257812 395.921875 53.40625 399.921875 52.550781 403.921875 L 52.390625 404.691406 C 51.753906 407.65625 51.117188 410.625 50.480469 413.589844 L 50.265625 414.582031 C 50.074219 415.480469 49.878906 416.375 49.6875 417.269531 L 49.519531 418.042969 C 49.316406 418.980469 49.101562 419.886719 48.800781 420.796875 L 23.464844 420.796875 C 24.171875 416.578125 24.171875 416.578125 24.464844 415.167969 L 24.671875 414.179688 L 24.890625 413.136719 L 25.128906 411.988281 C 25.347656 410.941406 25.570312 409.894531 25.789062 408.847656 L 26.21875 406.808594 C 28.085938 397.890625 29.984375 388.976562 31.886719 380.066406 C 34.316406 368.664062 36.734375 357.257812 39.152344 345.851562 L 39.886719 342.371094 L 43.011719 327.617188 C 44.777344 319.292969 46.539062 310.964844 48.304688 302.636719 L 48.980469 299.4375 L 49.195312 298.417969 C 49.476562 297.128906 49.761719 295.839844 50.050781 294.546875 M 71.628906 314.234375 C 71.121094 315.410156 70.808594 316.550781 70.546875 317.804688 L 70.289062 319.023438 L 70.015625 320.34375 L 69.726562 321.722656 C 69.46875 322.949219 69.210938 324.179688 68.953125 325.410156 C 68.53125 327.433594 68.105469 329.457031 67.679688 331.480469 L 67.207031 333.746094 C 66.605469 336.601562 66 339.457031 65.378906 342.308594 L 65.171875 343.25 C 64.929688 344.375 64.683594 345.5 64.433594 346.625 C 64.269531 347.363281 64.109375 348.097656 63.949219 348.835938 L 63.683594 350.046875 C 63.507812 351.050781 63.460938 351.96875 63.5 352.984375 C 76.800781 353.214844 76.800781 353.214844 89.257812 348.957031 C 92.84375 346.925781 95.585938 344.53125 97.722656 341.011719 L 98.214844 340.171875 L 98.597656 339.527344 C 100.316406 336.394531 100.714844 332.757812 100.714844 329.234375 C 100.542969 326.632812 100.171875 324.019531 98.839844 321.734375 C 96.929688 319.160156 94.679688 317.332031 91.746094 316.050781 C 86.832031 314.226562 81.71875 314.1875 76.554688 314.214844 C 76.074219 314.21875 75.597656 314.21875 75.117188 314.21875 C 73.953125 314.222656 72.792969 314.230469 71.628906 314.234375 M 580.496094 325.421875 L 581.386719 325.417969 C 582.007812 325.414062 582.628906 325.410156 583.25 325.410156 C 584.179688 325.40625 585.109375 325.398438 586.035156 325.386719 C 593.777344 325.34375 601.730469 326.617188 608.550781 330.484375 C 612.34375 332.769531 615.480469 335.796875 617.710938 339.613281 C 618.847656 341.6875 619.578125 343.832031 620.199219 346.109375 L 620.417969 346.914062 C 621.277344 350.5625 621.214844 354.339844 620.898438 358.046875 L 620.8125 359.042969 C 620.507812 362.386719 619.984375 365.675781 619.398438 368.980469 L 619.222656 369.972656 C 617.796875 378.109375 616.144531 386.203125 614.488281 394.292969 C 613.179688 400.683594 611.960938 407.074219 610.890625 413.507812 L 610.761719 414.285156 C 610.683594 414.757812 610.605469 415.226562 610.527344 415.699219 C 610.246094 417.410156 609.90625 419.09375 609.5625 420.796875 L 589.234375 420.796875 C 589.59375 416.488281 589.59375 416.488281 589.988281 414.425781 L 590.113281 413.75 C 590.242188 413.050781 590.375 412.355469 590.507812 411.65625 C 590.59375 411.179688 590.683594 410.699219 590.773438 410.21875 C 590.988281 409.058594 591.207031 407.894531 591.425781 406.734375 L 590.800781 406.734375 L 590.589844 407.246094 C 590.03125 408.238281 589.285156 409.019531 588.511719 409.839844 L 588.0625 410.328125 C 587.121094 411.339844 586.148438 412.320312 585.167969 413.296875 L 584.714844 413.808594 C 581.429688 417.417969 576.722656 419.921875 572.160156 421.5 C 571.085938 421.824219 570 422.109375 568.90625 422.359375 L 567.980469 422.574219 C 561.765625 423.753906 554.886719 423.242188 548.910156 421.1875 C 544.585938 419.605469 540.628906 417.054688 537.636719 413.527344 C 535.328125 410.394531 533.765625 407.109375 532.941406 403.296875 L 532.730469 402.421875 C 531.585938 396.9375 532.183594 391.042969 533.800781 385.71875 C 535.484375 381.070312 538.335938 377.203125 542.007812 373.921875 C 543.015625 373.128906 544.054688 372.421875 545.136719 371.734375 L 546.003906 371.179688 C 548.414062 369.703125 550.929688 368.625 553.582031 367.671875 L 554.234375 367.433594 C 563.410156 364.144531 573.371094 363.324219 583.058594 363.199219 L 584.363281 363.179688 C 585.488281 363.164062 586.617188 363.148438 587.746094 363.132812 C 588.902344 363.117188 590.058594 363.097656 591.21875 363.082031 C 593.476562 363.046875 595.734375 363.015625 597.992188 362.984375 C 598.09375 362.445312 598.199219 361.902344 598.300781 361.363281 L 598.472656 360.449219 C 598.683594 359.148438 598.726562 357.875 598.714844 356.558594 L 598.710938 355.78125 C 598.667969 353.582031 598.390625 351.761719 597.308594 349.820312 C 595.964844 347.816406 594.0625 346.519531 591.945312 345.417969 C 588.03125 343.699219 583.859375 343.449219 579.65625 343.492188 L 578.957031 343.496094 C 575.125 343.519531 571.417969 343.789062 567.65625 344.546875 L 567.003906 344.671875 C 563.929688 345.253906 560.972656 346.207031 558 347.183594 L 556.929688 347.535156 C 554.941406 348.207031 553.042969 348.960938 551.152344 349.882812 C 550.453125 350.171875 550.453125 350.171875 549.515625 350.171875 C 550.296875 345.417969 551.089844 340.664062 551.921875 335.914062 L 552.113281 334.792969 L 552.296875 333.753906 L 552.453125 332.84375 C 552.640625 332.066406 552.84375 331.472656 553.269531 330.796875 C 554.753906 330.089844 556.378906 329.6875 557.960938 329.234375 L 558.734375 329.007812 C 565.71875 326.980469 573.199219 325.457031 580.496094 325.421875 M 563.160156 382.300781 C 560.640625 383.933594 558.523438 385.816406 557.078125 388.464844 C 555.933594 390.851562 555.460938 393.144531 555.457031 395.796875 C 555.617188 397.621094 556.230469 399.207031 557.164062 400.777344 C 558.445312 402.492188 560.265625 403.4375 562.191406 404.28125 C 565.921875 405.578125 569.824219 405.511719 573.691406 404.851562 C 577.828125 404.035156 581.601562 402.332031 584.808594 399.558594 C 589.808594 394.84375 592.421875 388.558594 594.394531 382.085938 L 594.636719 381.292969 C 595.003906 380.039062 595.214844 378.992188 595.175781 377.671875 C 578.652344 377.222656 578.652344 377.222656 563.160156 382.300781 M 322.183594 325.347656 L 323.082031 325.34375 C 331.003906 325.308594 339.164062 326.523438 346.152344 330.484375 C 349.953125 332.777344 353.160156 335.859375 355.375 339.707031 C 357.691406 344.328125 358.558594 348.726562 358.542969 353.902344 L 358.539062 354.566406 C 358.507812 361.210938 357.253906 367.632812 356.042969 374.144531 L 355.878906 375.019531 C 355.003906 379.703125 354.097656 384.382812 353.160156 389.050781 C 352.652344 391.597656 352.144531 394.140625 351.628906 396.683594 C 351.289062 398.375 350.949219 400.070312 350.613281 401.761719 L 350.449219 402.589844 C 349.542969 407.160156 348.753906 411.742188 348.039062 416.34375 L 347.929688 417.046875 C 347.832031 417.664062 347.738281 418.285156 347.644531 418.90625 C 347.476562 419.859375 347.476562 419.859375 347.164062 420.796875 L 326.835938 420.796875 C 327.1875 416.9375 327.1875 416.9375 327.519531 415.085938 L 327.730469 413.898438 L 327.949219 412.691406 C 328.09375 411.890625 328.238281 411.085938 328.382812 410.28125 L 328.574219 409.21875 C 328.742188 408.246094 328.742188 408.246094 328.710938 407.046875 L 328.335938 407.453125 L 326.621094 409.292969 L 326.027344 409.933594 C 324.964844 411.074219 323.878906 412.199219 322.769531 413.296875 L 322.292969 413.820312 C 318.894531 417.480469 314.386719 419.871094 309.730469 421.519531 C 303.398438 423.449219 296.476562 423.613281 290.011719 422.21875 C 285.472656 421.121094 281.597656 419.117188 277.90625 416.261719 L 277.421875 415.796875 L 277.421875 415.171875 L 276.890625 414.980469 C 275.195312 413.964844 274.042969 411.847656 273.042969 410.171875 C 270.644531 405.5625 269.808594 400.417969 269.867188 395.265625 C 270.125 389.730469 271.441406 384.640625 274.292969 379.859375 C 275.054688 378.742188 275.878906 377.730469 276.796875 376.734375 L 277.46875 376 C 279.070312 374.320312 280.789062 372.988281 282.738281 371.734375 L 283.445312 371.261719 C 291.402344 366.152344 301.933594 364.3125 311.199219 363.609375 L 312.121094 363.535156 C 316.585938 363.203125 321.0625 363.195312 325.535156 363.132812 C 326.671875 363.117188 327.808594 363.097656 328.945312 363.082031 C 331.160156 363.046875 333.378906 363.015625 335.59375 362.984375 C 335.695312 362.445312 335.796875 361.902344 335.898438 361.363281 L 336.074219 360.449219 C 336.542969 357.539062 336.671875 353.9375 335.621094 351.152344 C 334.597656 349.15625 333.324219 347.738281 331.46875 346.480469 C 327.757812 344.289062 323.648438 343.554688 319.386719 343.511719 C 318.710938 343.507812 318.03125 343.511719 317.355469 343.511719 L 316.644531 343.515625 C 307.226562 343.558594 297.253906 345.441406 288.808594 349.789062 C 288.054688 350.171875 288.054688 350.171875 287.429688 350.171875 C 287.582031 346.761719 288.210938 343.421875 288.800781 340.066406 C 288.976562 339.074219 289.144531 338.078125 289.316406 337.085938 L 289.644531 335.183594 L 289.800781 334.285156 L 289.949219 333.449219 L 290.074219 332.71875 C 290.253906 332.003906 290.492188 331.433594 290.871094 330.796875 C 291.441406 330.484375 291.441406 330.484375 292.148438 330.265625 L 292.957031 330.003906 L 293.839844 329.742188 L 294.769531 329.460938 C 298.433594 328.371094 302.132812 327.476562 305.882812 326.734375 L 306.898438 326.535156 C 311.996094 325.574219 317.011719 325.363281 322.183594 325.347656 M 300.761719 382.300781 C 298.242188 383.933594 296.125 385.816406 294.679688 388.464844 C 293.589844 390.738281 293.054688 392.953125 293.058594 395.484375 C 293.25 397.292969 293.648438 398.933594 294.621094 400.484375 C 295.304688 401.300781 295.304688 401.300781 296.1875 402.046875 L 296.691406 402.519531 C 298.378906 403.957031 300.253906 404.652344 302.421875 405.074219 C 306.78125 405.738281 311.527344 405.222656 315.648438 403.660156 C 319.609375 401.984375 322.953125 399.539062 325.585938 396.109375 C 328.5 391.976562 330.359375 387.386719 331.839844 382.574219 L 332.128906 381.644531 C 332.53125 380.269531 332.828125 379.113281 332.777344 377.671875 C 316.253906 377.222656 316.253906 377.222656 300.761719 382.300781 " fill-opacity="1" fill-rule="nonzero"/><path fill="#e77929" d="M 695.976562 240.679688 L 696.664062 240.65625 C 697.800781 240.652344 698.429688 240.820312 699.433594 241.371094 C 700.261719 242.046875 700.261719 242.046875 700.886719 242.984375 C 700.960938 244.160156 700.78125 245.316406 700.316406 246.402344 C 699.980469 246.992188 699.621094 247.550781 699.234375 248.113281 L 698.816406 248.753906 C 698.363281 249.4375 697.910156 250.121094 697.449219 250.796875 L 696.507812 252.207031 C 695.527344 253.675781 694.53125 255.136719 693.539062 256.597656 L 691.535156 259.550781 L 691.039062 260.28125 C 689.929688 261.917969 688.824219 263.558594 687.730469 265.207031 C 685.625 268.363281 683.496094 271.503906 681.371094 274.648438 C 678.804688 278.441406 676.253906 282.246094 673.714844 286.058594 C 671.382812 289.5625 669.015625 293.050781 666.660156 296.542969 C 663.769531 300.820312 663.769531 300.820312 660.902344 305.109375 C 659.425781 307.316406 657.9375 309.511719 656.449219 311.710938 C 652.046875 318.21875 652.046875 318.21875 647.695312 324.761719 C 643.925781 330.449219 643.925781 330.449219 642.519531 331.34375 C 641.464844 331.734375 641.464844 331.734375 640.488281 331.753906 C 639.335938 331.332031 638.832031 330.78125 638.023438 329.859375 C 637.515625 328.847656 637.515625 328.847656 637.085938 327.710938 L 636.847656 327.089844 C 636.109375 325.125 635.4375 323.140625 634.789062 321.148438 C 634.417969 320.015625 634.042969 318.886719 633.667969 317.757812 L 633.429688 317.035156 C 632.5625 314.414062 631.667969 311.804688 630.773438 309.195312 C 628.625 302.9375 626.507812 296.671875 624.390625 290.402344 L 622.4375 284.628906 C 621.050781 280.527344 619.65625 276.425781 618.257812 272.328125 C 617.832031 271.074219 617.40625 269.820312 616.980469 268.566406 L 616.378906 266.792969 C 615.800781 265.09375 615.21875 263.394531 614.628906 261.699219 C 614.265625 260.648438 613.90625 259.59375 613.546875 258.542969 C 613.382812 258.0625 613.21875 257.585938 613.050781 257.109375 C 611.488281 252.636719 611.488281 252.636719 611.753906 250.171875 C 612.066406 249.023438 612.640625 248.085938 613.429688 247.191406 C 614.542969 246.171875 615.628906 245.835938 617.070312 245.484375 C 617.757812 245.402344 618.445312 245.339844 619.136719 245.296875 L 620.359375 245.21875 L 621.683594 245.140625 C 622.152344 245.113281 622.625 245.082031 623.09375 245.050781 C 624.375 244.972656 625.652344 244.894531 626.933594 244.816406 C 628.296875 244.734375 629.664062 244.648438 631.027344 244.566406 C 633.335938 244.421875 635.644531 244.28125 637.953125 244.140625 C 641.351562 243.929688 644.753906 243.71875 648.152344 243.503906 C 653.132812 243.191406 658.117188 242.878906 663.097656 242.574219 C 666.203125 242.382812 669.3125 242.1875 672.417969 241.992188 C 674.667969 241.851562 676.914062 241.714844 679.160156 241.574219 C 680.480469 241.496094 681.800781 241.414062 683.121094 241.328125 C 692.351562 240.746094 692.351562 240.746094 695.976562 240.679688 M 677.117188 290.171875 C 677.894531 290.515625 678.660156 290.878906 679.410156 291.273438 L 680.074219 291.609375 C 680.757812 291.960938 681.441406 292.316406 682.121094 292.671875 L 682.757812 293.003906 C 684.207031 293.757812 685.648438 294.523438 687.085938 295.289062 L 687.746094 295.640625 C 690.425781 297.066406 693.097656 298.5 695.742188 299.984375 C 697.621094 301.039062 699.519531 302.0625 701.414062 303.082031 C 703.851562 304.394531 706.265625 305.734375 708.667969 307.105469 C 711.703125 308.839844 714.78125 310.480469 717.875 312.105469 C 721.25 313.882812 724.613281 315.679688 727.941406 317.546875 C 729.496094 318.417969 731.058594 319.277344 732.621094 320.136719 C 733.214844 320.464844 733.808594 320.789062 734.398438 321.117188 C 736.160156 322.089844 737.917969 323.054688 739.6875 324.003906 L 740.546875 324.46875 C 741.0625 324.746094 741.578125 325.019531 742.09375 325.289062 C 743.625 326.117188 745.015625 327.042969 746.238281 328.296875 C 746.746094 329.214844 746.746094 329.214844 746.863281 330.171875 C 746.648438 331.167969 746.527344 331.589844 745.925781 332.359375 C 743.332031 334.363281 740.023438 335.535156 737.050781 336.851562 L 735.371094 337.601562 C 733.945312 338.238281 732.519531 338.871094 731.09375 339.503906 C 729.882812 340.039062 728.667969 340.582031 727.457031 341.121094 C 725.15625 342.144531 722.859375 343.164062 720.558594 344.183594 C 717.65625 345.46875 714.753906 346.757812 711.855469 348.042969 L 710.9375 348.449219 C 707.011719 350.195312 703.089844 351.941406 699.171875 353.699219 C 695.105469 355.523438 691.027344 357.332031 686.953125 359.140625 C 685.046875 359.988281 683.136719 360.835938 681.230469 361.683594 C 675.265625 364.339844 669.296875 366.980469 663.320312 369.605469 L 662.472656 369.976562 C 661.691406 370.320312 660.910156 370.664062 660.128906 371.007812 L 659.429688 371.316406 C 657.722656 372.0625 656.484375 372.492188 654.601562 372.359375 C 653.722656 371.988281 653.722656 371.988281 653.035156 371.421875 C 652.527344 370.550781 652.414062 369.921875 652.355469 368.914062 C 652.425781 367.371094 652.742188 365.957031 653.101562 364.453125 L 653.320312 363.5 C 653.5625 362.464844 653.808594 361.425781 654.054688 360.386719 L 654.570312 358.167969 C 655.808594 352.902344 657.0625 347.636719 658.332031 342.378906 C 659.714844 336.65625 661.078125 330.929688 662.441406 325.203125 C 662.921875 323.1875 663.40625 321.167969 663.886719 319.152344 L 664.6875 315.789062 L 664.886719 314.960938 C 665.609375 311.925781 666.328125 308.890625 667.039062 305.855469 C 667.355469 304.5 667.675781 303.148438 667.996094 301.792969 C 668.199219 300.929688 668.398438 300.0625 668.597656 299.195312 C 669.960938 293.371094 669.960938 293.371094 671.300781 291.871094 C 673 290.359375 674.867188 289.714844 677.117188 290.171875 " fill-opacity="1" fill-rule="nonzero"/><path fill="#ffffff" d="M 505.46875 325.410156 L 506.289062 325.402344 C 515.773438 325.316406 526.570312 325.464844 535.441406 329.234375 C 534.566406 332.871094 533.585938 336.476562 532.542969 340.070312 C 532.375 340.65625 532.207031 341.238281 532.042969 341.824219 C 531.800781 342.679688 531.554688 343.535156 531.304688 344.390625 L 531.085938 345.1875 C 530.898438 345.816406 530.671875 346.433594 530.4375 347.046875 L 529.5 347.359375 C 528.882812 347.214844 528.882812 347.214844 528.179688 346.957031 L 527.382812 346.671875 L 526.527344 346.363281 C 523.390625 345.273438 520.257812 344.492188 516.988281 343.921875 L 515.992188 343.738281 C 510.679688 343.164062 504.765625 343.082031 499.769531 345.152344 C 497.835938 346.113281 496.375 347.152344 495.097656 348.921875 C 494.402344 350.347656 494.316406 351.777344 494.359375 353.339844 C 494.554688 354.90625 495.140625 356.074219 496.035156 357.359375 C 499.050781 361.183594 503.648438 363.695312 507.660156 366.34375 C 513.773438 370.382812 519.886719 374.816406 523.34375 381.460938 C 525.550781 385.984375 525.761719 390.53125 525.433594 395.484375 C 525.011719 400.261719 523.429688 404.542969 520.820312 408.570312 C 517.582031 413.0625 513.347656 416.238281 508.351562 418.59375 C 504.996094 420.074219 501.460938 421.09375 497.871094 421.832031 L 497.195312 421.972656 C 492.242188 422.902344 487.265625 423.085938 482.238281 423.066406 C 481.253906 423.0625 480.269531 423.066406 479.289062 423.070312 C 474.683594 423.074219 470.300781 422.867188 465.875 421.460938 L 465.097656 421.230469 C 463.425781 420.71875 461.925781 420.054688 460.382812 419.234375 C 460.570312 416.945312 461.054688 414.820312 461.648438 412.605469 L 461.9375 411.527344 C 462.136719 410.777344 462.335938 410.03125 462.535156 409.285156 C 462.84375 408.136719 463.148438 406.988281 463.449219 405.839844 L 464.035156 403.660156 L 464.308594 402.613281 L 464.570312 401.65625 L 464.796875 400.808594 L 465.074219 400.171875 L 466.011719 399.859375 C 466.574219 400.09375 466.574219 400.09375 467.203125 400.46875 C 467.550781 400.671875 467.550781 400.671875 467.90625 400.882812 L 468.648438 401.324219 C 470.839844 402.582031 472.921875 403.644531 475.394531 404.234375 L 476.273438 404.445312 C 481.601562 405.472656 487.546875 405.269531 492.707031 403.578125 C 494.625 402.839844 496.464844 401.972656 497.910156 400.484375 C 499.042969 398.890625 499.664062 397.402344 499.851562 395.453125 C 499.894531 393.558594 499.636719 391.90625 498.851562 390.171875 C 495.835938 385.042969 490.589844 382.261719 485.703125 379.175781 C 482.351562 377.050781 479.207031 374.800781 476.332031 372.046875 L 475.511719 371.265625 L 474.769531 370.484375 L 474.207031 369.941406 C 471.789062 367.460938 470.183594 364.25 469.15625 360.953125 C 468.078125 356.25 468.367188 351.160156 469.648438 346.519531 C 471.203125 341.988281 473.75 338.097656 477.316406 334.890625 C 483.621094 329.519531 491.21875 327.433594 499.1875 325.949219 C 501.269531 325.605469 503.363281 325.425781 505.46875 325.410156 " fill-opacity="1" fill-rule="nonzero"/><path fill="#e77929" d="M 698.699219 357.359375 C 699.941406 358.035156 700.90625 358.808594 701.710938 359.976562 C 702.199219 360.84375 702.644531 361.71875 703.078125 362.613281 L 703.5625 363.582031 C 704.589844 365.632812 705.582031 367.699219 706.542969 369.78125 C 707.195312 371.1875 707.871094 372.585938 708.570312 373.972656 L 708.890625 374.613281 L 709.585938 375.996094 C 710.691406 378.195312 711.792969 380.394531 712.898438 382.59375 C 713.191406 383.175781 713.484375 383.761719 713.777344 384.34375 C 715.394531 387.566406 716.996094 390.792969 718.542969 394.050781 C 720.320312 397.785156 722.171875 401.480469 724.03125 405.171875 C 726.226562 409.527344 728.386719 413.890625 730.476562 418.292969 C 731.3125 420.050781 732.179688 421.792969 733.054688 423.53125 C 733.507812 424.816406 733.519531 425.691406 733.414062 427.046875 C 732.828125 427.964844 732.828125 427.964844 732.164062 428.609375 C 730.941406 429.222656 729.53125 429.066406 728.1875 428.992188 C 725.667969 428.75 723.179688 428.144531 720.703125 427.625 C 719.496094 427.371094 718.28125 427.121094 717.070312 426.875 L 716.429688 426.746094 L 715.109375 426.476562 C 714.425781 426.335938 713.746094 426.199219 713.0625 426.058594 C 707.851562 424.992188 702.632812 423.980469 697.414062 422.964844 C 694.523438 422.402344 691.628906 421.839844 688.738281 421.277344 L 687.851562 421.101562 C 680.976562 419.761719 674.109375 418.410156 667.238281 417.050781 L 664.566406 416.523438 C 661.53125 415.925781 658.5 415.324219 655.46875 414.71875 C 653.789062 414.382812 652.113281 414.054688 650.433594 413.730469 C 649.300781 413.507812 648.167969 413.285156 647.035156 413.058594 C 646.5 412.953125 645.96875 412.851562 645.433594 412.746094 C 644.695312 412.605469 643.960938 412.460938 643.222656 412.3125 L 642.574219 412.191406 C 641.132812 411.894531 640.132812 411.367188 638.964844 410.484375 C 638.355469 409.9375 638.355469 409.9375 638.023438 409.234375 C 637.972656 408.195312 637.980469 407.683594 638.335938 406.734375 C 639.691406 404.785156 641.53125 403.25 643.339844 401.734375 C 644.046875 401.136719 644.75 400.539062 645.453125 399.9375 L 646.023438 399.453125 C 647.59375 398.105469 649.121094 396.714844 650.640625 395.3125 C 652.050781 394.015625 653.5 392.765625 654.957031 391.527344 C 657.1875 389.628906 659.375 387.6875 661.519531 385.695312 C 662.953125 384.367188 664.425781 383.09375 665.914062 381.828125 C 668.054688 380.007812 670.15625 378.160156 672.21875 376.253906 C 673.113281 375.4375 674.019531 374.632812 674.9375 373.839844 C 675.652344 373.214844 676.355469 372.570312 677.058594 371.929688 C 678.117188 370.976562 679.195312 370.066406 680.304688 369.175781 C 681.753906 368.007812 683.117188 366.765625 684.46875 365.484375 C 686.085938 363.957031 687.730469 362.503906 689.476562 361.121094 C 690.257812 360.484375 690.984375 359.808594 691.71875 359.117188 C 692.722656 358.226562 693.621094 357.546875 694.914062 357.15625 C 696.222656 356.941406 697.441406 356.933594 698.699219 357.359375 " fill-opacity="1" fill-rule="nonzero"/><path fill="#ffffff" d="M 259.28125 284.859375 L 283.363281 284.859375 C 283.167969 287.015625 282.964844 288.996094 282.507812 291.082031 L 282.339844 291.863281 C 282.160156 292.714844 281.976562 293.5625 281.792969 294.414062 C 281.660156 295.023438 281.53125 295.632812 281.402344 296.246094 C 281.121094 297.554688 280.84375 298.863281 280.5625 300.167969 C 280.113281 302.253906 279.664062 304.34375 279.21875 306.429688 C 278.761719 308.585938 278.300781 310.742188 277.835938 312.898438 C 276.507812 319.128906 275.183594 325.359375 273.871094 331.597656 C 273.265625 334.46875 272.660156 337.339844 272.050781 340.210938 L 271.867188 341.082031 C 269.621094 351.722656 267.359375 362.363281 265.097656 373 C 264.363281 376.464844 263.625 379.929688 262.890625 383.394531 C 261.3125 390.851562 259.726562 398.304688 258.132812 405.753906 C 257.058594 410.769531 255.980469 415.785156 254.902344 420.796875 L 230.507812 420.796875 C 231.210938 416.578125 231.210938 416.578125 231.613281 414.695312 L 231.746094 414.058594 C 231.890625 413.367188 232.039062 412.671875 232.1875 411.980469 L 232.511719 410.445312 C 232.808594 409.039062 233.109375 407.632812 233.40625 406.222656 C 233.730469 404.695312 234.054688 403.167969 234.378906 401.640625 C 235.195312 397.792969 236.011719 393.941406 236.828125 390.09375 L 237.988281 384.621094 C 239.53125 377.351562 241.074219 370.085938 242.617188 362.816406 L 243.460938 358.839844 C 245.371094 349.863281 247.273438 340.886719 249.175781 331.910156 C 250.125 327.433594 251.074219 322.953125 252.019531 318.476562 L 252.214844 317.566406 L 252.40625 316.65625 L 254.867188 305.035156 C 255.96875 299.847656 257.070312 294.660156 258.171875 289.472656 L 258.40625 288.371094 C 258.476562 288.042969 258.546875 287.714844 258.617188 287.375 L 258.800781 286.515625 C 258.96875 285.796875 258.96875 285.796875 259.28125 284.859375 M 184.886719 325.386719 L 186.109375 325.386719 C 188.375 325.398438 190.46875 325.574219 192.664062 326.109375 C 192.488281 328.675781 191.996094 331.144531 191.453125 333.65625 L 191.1875 334.914062 C 191 335.785156 190.8125 336.65625 190.625 337.53125 C 190.386719 338.644531 190.148438 339.761719 189.914062 340.875 C 189.730469 341.738281 189.542969 342.601562 189.359375 343.464844 C 189.230469 344.074219 189.097656 344.683594 188.96875 345.296875 L 188.726562 346.421875 L 188.515625 347.40625 C 188.296875 348.265625 188.011719 349.046875 187.660156 349.859375 L 186.976562 349.734375 L 186.058594 349.566406 L 185.15625 349.402344 L 184.222656 349.234375 L 183.390625 349.066406 C 178.617188 348.417969 173.695312 348.644531 169.203125 350.421875 C 164.816406 352.257812 161.40625 355.035156 158.519531 358.796875 C 157.105469 360.71875 155.921875 362.746094 154.824219 364.859375 L 154.398438 365.667969 C 152.242188 370.089844 151.011719 374.867188 149.96875 379.648438 L 149.8125 380.359375 C 147.960938 388.746094 146.265625 397.167969 144.535156 405.582031 C 144.152344 407.445312 143.769531 409.308594 143.382812 411.171875 C 143.238281 411.875 143.09375 412.578125 142.949219 413.28125 C 142.75 414.253906 142.550781 415.222656 142.351562 416.195312 L 142.171875 417.0625 L 142.007812 417.867188 L 141.863281 418.558594 C 141.6875 419.234375 141.6875 419.234375 141.0625 420.796875 L 116.980469 420.796875 C 117.332031 417.632812 117.332031 417.632812 117.597656 416.347656 L 117.78125 415.457031 L 117.980469 414.507812 L 118.191406 413.480469 C 118.425781 412.347656 118.660156 411.214844 118.894531 410.085938 L 119.398438 407.652344 C 119.757812 405.914062 120.117188 404.175781 120.480469 402.433594 C 121 399.917969 121.523438 397.402344 122.042969 394.886719 C 123.738281 386.671875 125.441406 378.457031 127.148438 370.246094 C 127.601562 368.066406 128.054688 365.886719 128.507812 363.710938 L 128.640625 363.070312 L 129.164062 360.542969 C 129.625 358.316406 130.089844 356.089844 130.554688 353.863281 C 131.023438 351.609375 131.492188 349.359375 131.957031 347.105469 L 132.179688 346.046875 C 133.167969 341.253906 134.097656 336.457031 134.886719 331.632812 L 135.082031 330.460938 L 135.242188 329.457031 C 135.433594 328.609375 135.433594 328.609375 136.058594 327.359375 L 158.574219 327.359375 C 158.84375 328.707031 158.910156 329.214844 158.660156 330.472656 C 158.601562 330.773438 158.546875 331.070312 158.484375 331.378906 L 158.292969 332.347656 L 158.097656 333.347656 C 157.894531 334.398438 157.6875 335.449219 157.480469 336.5 C 157.273438 337.558594 157.066406 338.613281 156.863281 339.671875 C 156.734375 340.328125 156.605469 340.984375 156.476562 341.640625 L 156.300781 342.535156 C 156.25 342.796875 156.199219 343.058594 156.144531 343.328125 L 156.074219 343.921875 L 156.386719 344.234375 L 156.628906 343.683594 C 159.117188 338.359375 163.296875 334.074219 168.035156 330.699219 C 169.902344 329.421875 171.871094 328.320312 173.9375 327.398438 L 174.515625 327.140625 C 177.925781 325.691406 181.199219 325.34375 184.886719 325.386719 " fill-opacity="1" fill-rule="nonzero"/><path fill="#e77929" d="M 680.558594 421.109375 C 681.933594 421.824219 682.816406 422.648438 683.6875 423.921875 C 684.300781 425.179688 684.386719 426.1875 684.371094 427.578125 L 684.363281 428.195312 C 684.324219 430.722656 684.148438 433.246094 683.976562 435.769531 L 683.871094 437.40625 C 683.773438 438.871094 683.675781 440.335938 683.574219 441.800781 C 683.492188 443.027344 683.410156 444.257812 683.328125 445.484375 C 683.132812 448.386719 682.9375 451.285156 682.742188 454.183594 C 682.542969 457.167969 682.339844 460.148438 682.144531 463.128906 C 681.972656 465.699219 681.800781 468.269531 681.628906 470.839844 C 681.523438 472.371094 681.421875 473.902344 681.320312 475.433594 C 681.226562 476.871094 681.128906 478.3125 681.027344 479.75 C 680.992188 480.273438 680.957031 480.800781 680.925781 481.324219 C 680.378906 489.59375 680.378906 489.59375 679.5 491.347656 C 678.996094 492.046875 678.996094 492.046875 678.058594 492.671875 C 677.039062 492.789062 677.039062 492.789062 675.867188 492.671875 C 674.078125 491.898438 672.804688 490.679688 671.382812 489.363281 C 670.578125 488.636719 669.753906 487.957031 668.910156 487.28125 C 667.324219 486 665.839844 484.632812 664.355469 483.234375 C 663.007812 481.972656 661.605469 480.800781 660.160156 479.644531 C 658.976562 478.660156 657.859375 477.613281 656.738281 476.558594 C 655.703125 475.59375 654.632812 474.671875 653.527344 473.785156 C 651.957031 472.527344 650.496094 471.175781 649.03125 469.796875 C 647.683594 468.535156 646.28125 467.363281 644.835938 466.207031 C 643.835938 465.375 642.882812 464.5 641.933594 463.609375 C 640.714844 462.46875 639.484375 461.375 638.179688 460.328125 C 636.492188 458.972656 634.914062 457.515625 633.328125 456.039062 C 631.882812 454.695312 630.390625 453.410156 628.890625 452.128906 L 627.761719 451.167969 L 627.1875 450.679688 C 626.019531 449.679688 624.867188 448.65625 623.734375 447.613281 C 622.667969 446.632812 621.566406 445.6875 620.433594 444.78125 C 618.941406 443.578125 617.519531 442.3125 616.113281 441.011719 L 615.492188 440.445312 L 614.910156 439.902344 L 614.390625 439.421875 C 613.890625 438.863281 613.601562 438.367188 613.316406 437.671875 C 613.117188 436.085938 613.117188 436.085938 613.316406 435.171875 C 614.109375 434.261719 614.699219 433.8125 615.804688 433.363281 C 617.589844 432.769531 619.378906 432.347656 621.222656 431.980469 L 622.164062 431.792969 C 623.191406 431.585938 624.21875 431.378906 625.246094 431.175781 C 625.976562 431.027344 626.710938 430.878906 627.441406 430.734375 C 629.398438 430.339844 631.355469 429.945312 633.3125 429.554688 C 634.929688 429.234375 636.546875 428.910156 638.164062 428.585938 C 641.007812 428.015625 643.851562 427.445312 646.695312 426.878906 C 650.949219 426.03125 655.203125 425.175781 659.453125 424.3125 C 661.398438 423.917969 663.347656 423.523438 665.296875 423.132812 C 666.554688 422.878906 667.8125 422.625 669.070312 422.367188 C 670.226562 422.128906 671.386719 421.898438 672.546875 421.667969 C 673.152344 421.546875 673.757812 421.421875 674.363281 421.292969 C 676.476562 420.878906 678.433594 420.617188 680.558594 421.109375 " fill-opacity="1" fill-rule="nonzero"/><path fill="#ffffff" d="M 207.675781 327.359375 C 208.410156 327.332031 209.132812 327.320312 209.867188 327.324219 L 210.558594 327.324219 C 211.320312 327.324219 212.078125 327.328125 212.839844 327.332031 L 214.414062 327.332031 C 215.800781 327.332031 217.1875 327.335938 218.574219 327.339844 C 219.984375 327.34375 221.398438 327.34375 222.8125 327.34375 C 225.585938 327.347656 228.359375 327.355469 231.132812 327.359375 C 231.535156 328.746094 231.332031 329.890625 231.023438 331.265625 L 230.875 331.96875 C 230.714844 332.742188 230.546875 333.511719 230.378906 334.28125 L 230.027344 335.921875 C 229.714844 337.386719 229.398438 338.851562 229.082031 340.316406 C 228.753906 341.839844 228.425781 343.367188 228.101562 344.890625 C 226.542969 352.15625 224.96875 359.417969 223.371094 366.675781 C 222.328125 371.445312 221.304688 376.214844 220.304688 380.992188 L 220.082031 382.054688 L 219.140625 386.542969 C 218.0625 391.671875 216.980469 396.800781 215.894531 401.929688 C 215.578125 403.429688 215.261719 404.929688 214.945312 406.433594 C 214.644531 407.851562 214.34375 409.273438 214.042969 410.695312 L 213.707031 412.273438 C 213.554688 413.003906 213.402344 413.738281 213.246094 414.46875 L 213.113281 415.09375 C 212.707031 417.011719 212.21875 418.890625 211.742188 420.796875 L 187.347656 420.796875 C 189.164062 411.722656 189.164062 411.722656 189.96875 407.9375 L 190.160156 407.042969 L 190.359375 406.109375 L 190.792969 404.074219 C 194.285156 387.605469 197.8125 371.144531 201.347656 354.6875 L 202.039062 351.460938 C 202.679688 348.476562 203.316406 345.492188 203.953125 342.511719 L 204.867188 338.210938 C 205.03125 337.445312 205.195312 336.679688 205.355469 335.914062 C 205.578125 334.871094 205.800781 333.832031 206.023438 332.789062 L 206.214844 331.871094 C 206.523438 330.4375 206.84375 329.042969 207.363281 327.671875 Z M 207.675781 327.359375 " fill-opacity="1" fill-rule="nonzero"/><path fill="#e77929" d="M 586.121094 447.574219 C 588.40625 447.542969 590.335938 448.09375 592.492188 448.808594 L 593.617188 449.167969 C 594.414062 449.425781 595.210938 449.683594 596.007812 449.941406 C 597.265625 450.355469 598.523438 450.761719 599.78125 451.164062 C 601.066406 451.578125 602.351562 451.992188 603.636719 452.40625 C 607.253906 453.578125 610.882812 454.714844 614.515625 455.839844 C 620.03125 457.550781 625.546875 459.277344 631.035156 461.082031 C 631.796875 461.328125 632.554688 461.574219 633.320312 461.8125 L 634.574219 462.210938 L 635.710938 462.570312 C 637.03125 463.085938 638.148438 463.746094 639.164062 464.734375 C 639.777344 465.503906 640.210938 466.105469 640.527344 467.046875 C 640.6875 468.117188 640.667969 469.101562 640.527344 470.171875 C 639.496094 472.765625 637.949219 475.109375 636.402344 477.417969 L 635.144531 479.320312 L 634.53125 480.25 C 633.765625 481.402344 633.007812 482.5625 632.257812 483.726562 L 631.855469 484.351562 C 630.582031 486.320312 629.320312 488.296875 628.054688 490.269531 C 626.023438 493.445312 623.976562 496.613281 621.914062 499.769531 C 621.03125 501.128906 620.148438 502.488281 619.269531 503.851562 C 618.550781 504.960938 617.835938 506.066406 617.117188 507.175781 C 616.402344 508.289062 615.683594 509.394531 614.960938 510.503906 C 614.589844 511.078125 614.21875 511.65625 613.851562 512.234375 L 613.199219 513.238281 L 612.644531 514.105469 C 612.007812 514.933594 611.351562 515.503906 610.503906 516.109375 C 609.71875 516.382812 609.71875 516.382812 608.9375 516.421875 C 608.15625 516.246094 608.15625 516.246094 607.375 515.796875 C 605.667969 514.132812 605.0625 512.15625 604.285156 509.9375 C 604.140625 509.527344 603.992188 509.117188 603.847656 508.707031 C 603.523438 507.808594 603.203125 506.910156 602.886719 506.011719 C 602.34375 504.472656 601.796875 502.941406 601.246094 501.40625 C 600.546875 499.453125 599.847656 497.5 599.152344 495.546875 C 598.019531 492.367188 596.875 489.1875 595.726562 486.011719 C 593.886719 480.929688 592.058594 475.84375 590.238281 470.753906 C 588.988281 467.269531 587.738281 463.78125 586.46875 460.300781 L 586.195312 459.558594 C 585.792969 458.449219 585.386719 457.339844 584.976562 456.234375 L 584.5625 455.09375 L 584.203125 454.125 C 583.695312 452.648438 583.496094 451.4375 583.605469 449.859375 C 584.015625 448.980469 584.015625 448.980469 584.542969 448.296875 C 585.480469 447.671875 585.480469 447.671875 586.121094 447.574219 M 559.738281 453.609375 C 562.351562 454.398438 564.351562 456.414062 566.265625 458.277344 C 567.761719 459.714844 569.261719 461.128906 570.828125 462.484375 C 571.648438 463.195312 572.445312 463.929688 573.246094 464.664062 C 574.914062 466.199219 576.597656 467.722656 578.289062 469.234375 L 580.636719 471.347656 C 581.148438 471.808594 581.664062 472.269531 582.175781 472.730469 C 583.292969 473.730469 584.40625 474.730469 585.507812 475.746094 L 586.007812 476.207031 C 586.472656 476.632812 586.9375 477.0625 587.402344 477.492188 C 588.027344 478.054688 588.652344 478.597656 589.304688 479.128906 C 590.277344 479.949219 590.828125 480.609375 591.425781 481.734375 C 591.855469 483 592.152344 484.207031 591.945312 485.539062 C 591.414062 487.148438 590.425781 488.367188 589.234375 489.546875 C 588.40625 490.183594 587.53125 490.714844 586.636719 491.246094 C 586.105469 491.574219 585.574219 491.898438 585.046875 492.222656 L 584.191406 492.746094 C 582.574219 493.742188 580.980469 494.773438 579.382812 495.796875 C 576.839844 497.429688 574.289062 499.050781 571.734375 500.660156 C 570.128906 501.671875 568.523438 502.6875 566.921875 503.707031 C 565.769531 504.441406 564.617188 505.175781 563.460938 505.910156 C 562.9375 506.242188 562.410156 506.578125 561.886719 506.910156 C 561.195312 507.347656 560.507812 507.785156 559.816406 508.21875 L 559.214844 508.605469 C 556.800781 510.121094 556.800781 510.121094 555.425781 510.222656 C 554.78125 510.152344 554.199219 510.058594 553.582031 509.859375 C 552.820312 509.214844 552.820312 509.214844 552.332031 508.296875 C 551.859375 505.953125 552.125 503.664062 552.332031 501.296875 L 552.445312 499.9375 C 552.546875 498.714844 552.648438 497.492188 552.753906 496.269531 C 552.863281 494.984375 552.972656 493.703125 553.078125 492.417969 C 553.210938 490.816406 553.34375 489.210938 553.480469 487.605469 C 553.777344 484.070312 554.070312 480.535156 554.351562 476.996094 C 554.476562 475.433594 554.601562 473.875 554.730469 472.3125 C 554.828125 471.066406 554.929688 469.820312 555.027344 468.574219 C 555.121094 467.402344 555.214844 466.230469 555.3125 465.058594 C 555.363281 464.429688 555.414062 463.800781 555.460938 463.171875 C 556.007812 456.558594 556.007812 456.558594 556.984375 454.976562 C 557.648438 454.234375 557.648438 454.234375 558.234375 453.785156 C 558.898438 453.609375 558.898438 453.609375 559.738281 453.609375 M 535.1875 454.507812 C 536.378906 454.859375 536.378906 454.859375 536.984375 455.40625 C 538.433594 457.054688 539.578125 458.710938 540.621094 460.640625 C 540.945312 461.222656 541.265625 461.800781 541.589844 462.378906 C 541.757812 462.679688 541.925781 462.980469 542.101562 463.292969 C 543.035156 464.941406 544.019531 466.558594 545 468.179688 C 546.457031 470.59375 547.902344 473.011719 549.320312 475.445312 L 549.753906 476.191406 L 550.148438 476.871094 L 550.488281 477.457031 C 551.148438 478.710938 551.183594 479.84375 551.164062 481.226562 C 551.058594 482.253906 550.765625 483.035156 550.316406 483.957031 C 549.445312 485.011719 548.308594 485.828125 547.050781 486.359375 C 546.421875 486.5625 545.792969 486.738281 545.152344 486.90625 L 544.433594 487.105469 C 543.660156 487.316406 542.882812 487.527344 542.109375 487.730469 C 541.566406 487.878906 541.023438 488.027344 540.480469 488.175781 C 539.644531 488.40625 538.808594 488.632812 537.96875 488.859375 C 536.058594 489.378906 534.15625 489.914062 532.253906 490.464844 L 529.988281 491.117188 C 529.511719 491.253906 529.035156 491.394531 528.558594 491.535156 C 523.320312 493.074219 523.320312 493.074219 520.742188 492.671875 C 519.765625 492.085938 519.765625 492.085938 519.179688 491.421875 C 518.746094 490.558594 518.769531 489.746094 518.78125 488.792969 C 518.9375 487.320312 519.511719 486.023438 520.082031 484.667969 L 520.464844 483.714844 C 520.878906 482.695312 521.300781 481.679688 521.71875 480.660156 C 522.007812 479.957031 522.292969 479.253906 522.582031 478.546875 C 523.292969 476.804688 524.007812 475.058594 524.726562 473.320312 C 525.195312 472.179688 525.664062 471.039062 526.128906 469.898438 C 527.085938 467.566406 528.042969 465.238281 529.015625 462.914062 C 529.371094 462.050781 529.714844 461.1875 530.050781 460.320312 L 530.335938 459.597656 C 530.519531 459.136719 530.695312 458.675781 530.871094 458.210938 C 531.433594 456.796875 532.058594 455.859375 533.253906 454.859375 C 534.191406 454.546875 534.191406 454.546875 535.1875 454.507812 " fill-opacity="1" fill-rule="nonzero"/><path fill="#ffffff" d="M 216.121094 287.359375 L 240.203125 287.359375 L 240.515625 287.984375 C 240.433594 288.609375 240.433594 288.609375 240.261719 289.382812 L 240.066406 290.261719 L 239.847656 291.222656 L 239.628906 292.222656 C 239.390625 293.285156 239.152344 294.347656 238.914062 295.40625 L 238.453125 297.484375 C 237.484375 301.820312 236.496094 306.152344 235.511719 310.484375 L 211.117188 310.484375 C 211.820312 306.265625 211.820312 306.265625 212.183594 304.632812 L 212.425781 303.523438 L 212.683594 302.371094 L 212.953125 301.152344 C 213.136719 300.308594 213.324219 299.46875 213.511719 298.628906 C 213.75 297.550781 213.988281 296.472656 214.226562 295.394531 C 214.453125 294.359375 214.683594 293.324219 214.910156 292.292969 L 215.167969 291.121094 L 215.410156 290.039062 L 215.621094 289.085938 C 215.808594 288.296875 215.808594 288.296875 216.121094 287.359375 " fill-opacity="1" fill-rule="nonzero"/><path fill="#e77929" d="M 515.152344 452.769531 C 516.363281 452.984375 516.363281 452.984375 517.222656 453.589844 C 518.925781 455.902344 519.765625 458.808594 520.742188 461.488281 C 520.898438 461.914062 521.058594 462.335938 521.21875 462.757812 C 522.277344 465.535156 522.992188 468.09375 522.617188 471.109375 C 522.335938 472.101562 522.058594 472.46875 521.367188 473.296875 C 520.339844 474.242188 519.320312 474.75 517.964844 475.085938 C 516.910156 475.261719 515.863281 475.382812 514.800781 475.484375 L 513.738281 475.589844 C 512.527344 475.691406 511.320312 475.753906 510.109375 475.796875 L 509.257812 475.832031 C 508.335938 475.859375 507.414062 475.878906 506.492188 475.894531 L 505.601562 475.925781 C 503.558594 475.941406 503.558594 475.941406 502.617188 475.535156 C 502.105469 475.207031 502.105469 475.207031 501.351562 474.546875 C 500.957031 473.757812 500.898438 473.046875 500.910156 472.171875 C 501.359375 469.570312 503.484375 467.046875 504.949219 464.898438 L 506.101562 463.191406 L 506.695312 462.316406 C 507.296875 461.417969 507.890625 460.511719 508.476562 459.605469 L 509.058594 458.714844 C 509.421875 458.152344 509.785156 457.589844 510.144531 457.027344 C 512.828125 452.933594 512.828125 452.933594 515.152344 452.769531 M 500.75 450.671875 C 501.351562 450.796875 501.351562 450.796875 502.230469 451.421875 C 503.273438 452.851562 503.796875 454.394531 504.167969 456.109375 C 504.304688 457.421875 504.339844 458.683594 503.941406 459.953125 C 503.460938 460.984375 502.972656 461.679688 502.152344 462.476562 C 500.957031 463.234375 499.957031 463.640625 498.539062 463.703125 C 498.074219 463.710938 497.613281 463.710938 497.148438 463.707031 L 496.449219 463.722656 C 495.285156 463.726562 494.503906 463.625 493.402344 463.191406 C 492.59375 462.671875 492.59375 462.671875 491.988281 461.792969 C 491.65625 460.796875 491.65625 460.796875 491.636719 459.917969 C 492.125 458.453125 492.929688 457.347656 493.847656 456.109375 L 494.246094 455.570312 C 494.6875 454.980469 495.136719 454.390625 495.585938 453.804688 L 496.019531 453.230469 C 497.332031 451.554688 498.546875 450.570312 500.75 450.671875 M 614.882812 246.109375 L 615.820312 246.421875 C 615.421875 246.777344 615.023438 247.128906 614.628906 247.476562 L 613.957031 248.070312 C 613.316406 248.609375 613.316406 248.609375 612.378906 249.234375 C 612.605469 248.441406 612.867188 247.824219 613.429688 247.210938 C 613.921875 246.773438 613.921875 246.773438 614.882812 246.109375 " fill-opacity="1" fill-rule="nonzero"/></svg>