<?xml version="1.0" encoding="UTF-8"?><svg id="Capa_1" xmlns="http://www.w3.org/2000/svg" viewBox="0 0 600 600"><defs><style>.cls-1{fill:#fff;}</style></defs><g id="Page-1"><g id="_024---Vitamines"><path id="Shape" class="cls-1" d="M335.66,349.83c1.12-3.33.86-6.96-.73-10.1l-23.04-46.06c-2.24-4.48-6.82-7.31-11.83-7.31s-9.59,2.83-11.83,7.31l-23.04,46.06c-2.17,4.23-1.9,9.31.7,13.29,2.61,3.98,7.15,6.25,11.9,5.95,4.75-.3,8.97-3.13,11.05-7.41l11.22-22.41,11.21,22.42c2.39,4.79,7.43,7.66,12.77,7.28,5.34-.38,9.92-3.94,11.61-9.01h0ZM325.79,350.99c-1.42.71-3.06.83-4.56.33-1.5-.5-2.75-1.58-3.45-3l-14.45-28.91c-.68-1.14-1.91-1.84-3.25-1.84s-2.56.7-3.25,1.84l-14.45,28.91c-1.52,2.88-5.05,4.01-7.96,2.56-2.91-1.45-4.12-4.97-2.72-7.9l23.04-46.06c1.01-2.02,3.08-3.3,5.34-3.3s4.33,1.28,5.34,3.3l23.04,46.08c1.47,2.95.28,6.53-2.67,8.01v-.02Z"/><path id="Shape-2" class="cls-1" d="M241.13,254.58c1.06,0,2.09-.33,2.96-.95,9.47-6.76,16.17-16.72,18.86-28.04h37.05c2.82,0,5.11-2.29,5.11-5.11s-2.29-5.11-5.11-5.11h-41.29c-2.55,0-4.71,1.88-5.06,4.4-1.44,10.27-7.04,19.5-15.48,25.53-1.81,1.29-2.58,3.6-1.91,5.72.68,2.12,2.65,3.56,4.87,3.55h-.01Z"/><path id="Shape-3" class="cls-1" d="M172.25,394.23c2.82,0,5.11-2.29,5.11-5.11,0-10.25,5.13-19.83,13.67-25.51,2.29-1.59,2.88-4.72,1.33-7.04-1.55-2.32-4.67-2.96-7.01-1.45-11.37,7.58-18.2,20.34-18.21,34,0,2.82,2.29,5.11,5.11,5.11Z"/><path id="Shape-4" class="cls-1" d="M164.65,432.49c.07.07.15.09.22.15,14.63,14.56,35.63,20.76,55.82,16.47,2.5.85,5.12,1.3,7.77,1.33h143.08c5.42-.02,10.68-1.77,15.03-5,14.24,7.25,31.23,6.57,44.85-1.79,13.62-8.37,21.91-23.22,21.87-39.2v-61.32c.04-14.01-6.32-27.26-17.27-35.99-10.95-8.73-25.29-11.98-38.94-8.81v-41.25c-.03-11.84-7.59-22.34-18.82-26.1-7.07-2.35-11.84-8.96-11.85-16.41v-10.34c6.1-2.16,10.19-7.92,10.22-14.39v-30.66c0-8.47-6.86-15.33-15.33-15.33h-122.64c-8.47,0-15.33,6.86-15.33,15.33v30.66c.03,6.47,4.12,12.23,10.22,14.39v10.34c0,3.62-1.14,7.15-3.27,10.08-2.13,2.96-5.13,5.17-8.58,6.33-11.23,3.75-18.81,14.26-18.82,26.1v70.98c-23.74,1.96-44.2,17.51-52.43,39.86-8.24,22.35-2.77,47.45,14.03,64.35.08.07.08.15.15.22ZM175.7,428.66l71.86-71.86c16.64,20.3,15.18,49.91-3.38,68.47-18.56,18.56-48.17,20.02-68.47,3.38ZM407.31,440.22c-19.75-.02-35.75-16.02-35.77-35.77v-25.55h71.54v25.55c-.02,19.75-16.02,35.75-35.77,35.77ZM443.08,343.13v25.55h-71.54v-25.55c0-19.76,16.02-35.77,35.77-35.77s35.77,16.02,35.77,35.77ZM233.57,159.16c0-2.82,2.29-5.11,5.11-5.11h122.64c2.82,0,5.11,2.29,5.11,5.11v30.66c0,2.82-2.29,5.11-5.11,5.11h-5.11v-15.33c0-2.82-2.29-5.11-5.11-5.11s-5.11,2.29-5.11,5.11v15.33h-15.33v-15.33c0-2.82-2.29-5.11-5.11-5.11s-5.11,2.29-5.11,5.11v15.33h-15.33v-15.33c0-2.82-2.29-5.11-5.11-5.11s-5.11,2.29-5.11,5.11v15.33h-15.33v-15.33c0-2.82-2.29-5.11-5.11-5.11s-5.11,2.29-5.11,5.11v15.33h-15.33v-15.33c0-2.82-2.29-5.11-5.11-5.11s-5.11,2.29-5.11,5.11v15.33h-5.11c-2.82,0-5.11-2.29-5.11-5.11v-30.66ZM224.97,240.66c11.23-3.76,18.8-14.27,18.82-26.11v-9.4h112.42v9.4c0,11.85,7.59,22.36,18.83,26.11,3.46,1.16,6.47,3.39,8.59,6.36,2.12,2.92,3.25,6.44,3.25,10.05v9.4h-122.64c-2.82,0-5.11,2.29-5.11,5.11s2.29,5.11,5.11,5.11h122.64v25.29c-15.63,7.76-25.53,23.69-25.55,41.14v61.32c0,13.31,5.78,25.96,15.84,34.67-1.79.72-3.69,1.09-5.62,1.1h-129.7c11.08-7.37,19.47-18.13,23.92-30.66h70.01c2.82,0,5.11-2.29,5.11-5.11s-2.29-5.11-5.11-5.11h-67.36c3.45-19.48-2.85-39.41-16.86-53.37-.06-.07-.08-.15-.15-.22-.07-.07-.15-.09-.22-.15-10.22-10.15-23.7-16.36-38.05-17.54v-51.36h20.44c2.82,0,5.11-2.29,5.11-5.11s-2.29-5.11-5.11-5.11h-20.44v-9.4c0-7.45,4.77-14.05,11.83-16.41h0ZM208.02,338.02c11.79,0,23.21,4.08,32.32,11.56l-71.86,71.86c-12.51-15.27-15.1-36.39-6.64-54.23,8.46-17.84,26.44-29.21,46.18-29.19h0Z"/><path id="Shape-5" class="cls-1" d="M386.87,348.24c2.82,0,5.11-2.29,5.11-5.11,0-8.47,6.86-15.33,15.33-15.33,2.82,0,5.11-2.29,5.11-5.11s-2.29-5.11-5.11-5.11c-14.1.02-25.53,11.45-25.55,25.55,0,2.82,2.29,5.11,5.11,5.11Z"/></g></g></svg>