<?xml version="1.0" encoding="UTF-8"?><svg id="Capa_1" xmlns="http://www.w3.org/2000/svg" viewBox="0 0 600 600"><defs><style>.cls-1{fill:#fff;}</style></defs><g id="Page-1"><g id="_004---Fozen-Food"><path id="Shape" class="cls-1" d="M190.39,429.21c-5.79,5.21-9.54,12.3-10.58,20.02-.57,3.16.29,6.4,2.36,8.86,2.1,2.52,5.21,3.97,8.48,3.97h218.7c3.28,0,6.39-1.45,8.48-3.97,2.06-2.45,2.93-5.7,2.36-8.86-1.04-7.72-4.79-14.82-10.58-20.02,7.1-5.14,11.31-13.36,11.33-22.13v-219.9c-.02-8.76-4.23-16.99-11.33-22.13,5.79-5.21,9.54-12.3,10.58-20.02.57-3.16-.29-6.4-2.36-8.86-2.1-2.52-5.21-3.97-8.48-3.97h-218.7c-3.28,0-6.39,1.45-8.48,3.97-2.06,2.45-2.93,5.7-2.36,8.86,1.04,7.72,4.79,14.82,10.58,20.02-7.1,5.14-11.31,13.36-11.33,22.13v219.9c.02,8.76,4.23,16.99,11.33,22.13h0ZM409.4,451.06s-.03,0-.04,0h-15.9c0-3.04-2.46-5.5-5.5-5.5s-5.5,2.46-5.5,5.5h-10.99c0-3.04-2.46-5.5-5.5-5.5s-5.5,2.46-5.5,5.5v.03h-10.99v-.03c0-3.04-2.46-5.5-5.5-5.5s-5.5,2.46-5.5,5.5v.04h-10.99v-.04c0-3.04-2.46-5.5-5.5-5.5s-5.5,2.46-5.5,5.5v.05h-10.99v-.05c0-3.04-2.46-5.5-5.5-5.5s-5.5,2.46-5.5,5.5v.07h-10.99v-.07c0-3.04-2.46-5.5-5.5-5.5s-5.5,2.46-5.5,5.5v.08h-10.99v-.08c0-3.04-2.46-5.5-5.5-5.5s-5.5,2.46-5.5,5.5v.09h-10.99v-.09c0-3.04-2.46-5.5-5.5-5.5s-5.5,2.46-5.5,5.5v.1h-10.99v-.1c0-3.04-2.46-5.5-5.5-5.5s-5.5,2.46-5.5,5.5v.12h-15.91c2-11.02,7.35-16.61,15.91-16.61h186.91c8.56,0,13.91,5.59,15.94,16.49h0ZM190.65,143.21h15.89c0,3.04,2.46,5.5,5.5,5.5s5.5-2.46,5.5-5.5h10.99c0,3.04,2.46,5.5,5.5,5.5s5.5-2.46,5.5-5.5h10.99c0,3.04,2.46,5.5,5.5,5.5s5.5-2.46,5.5-5.5h10.99c0,3.04,2.46,5.5,5.5,5.5s5.5-2.46,5.5-5.5h10.99c0,3.04,2.46,5.5,5.5,5.5s5.5-2.46,5.5-5.5h10.99c0,3.04,2.46,5.5,5.5,5.5s5.5-2.46,5.5-5.5h10.99c0,3.04,2.46,5.5,5.5,5.5s5.5-2.46,5.5-5.5h10.99c0,3.04,2.46,5.5,5.5,5.5s5.5-2.46,5.5-5.5h10.99c0,3.04,2.46,5.5,5.5,5.5s5.5-2.46,5.5-5.5h15.89c-2.02,10.94-7.36,16.49-15.89,16.49h-186.91c-8.56,0-13.91-5.59-15.89-16.49h0ZM190.05,187.19c0-9.11,7.38-16.49,16.49-16.49h186.91c9.11,0,16.49,7.38,16.49,16.49v219.9c0,9.11-7.38,16.49-16.49,16.49h-186.91c-9.11,0-16.49-7.38-16.49-16.49v-219.9Z"/><path id="Shape-2" class="cls-1" d="M300,357.61c48.58,0,87.96-39.38,87.96-87.96s-39.38-87.96-87.96-87.96-87.96,39.38-87.96,87.96c.06,48.55,39.4,87.9,87.96,87.96ZM300,192.68c42.51,0,76.96,34.46,76.96,76.96s-34.46,76.96-76.96,76.96-76.96-34.46-76.96-76.96c.05-42.49,34.48-76.92,76.96-76.96Z"/><path id="Shape-3" class="cls-1" d="M228.53,374.1h-5.5c-3.04,0-5.5,2.46-5.5,5.5s2.46,5.5,5.5,5.5h5.5c3.04,0,5.5-2.46,5.5-5.5s-2.46-5.5-5.5-5.5Z"/><path id="Shape-4" class="cls-1" d="M376.96,374.1h-5.5c-3.04,0-5.5,2.46-5.5,5.5s2.46,5.5,5.5,5.5h5.5c3.04,0,5.5-2.46,5.5-5.5s-2.46-5.5-5.5-5.5Z"/><path id="Shape-5" class="cls-1" d="M349.48,374.1h-98.95c-3.04,0-5.5,2.46-5.5,5.5s2.46,5.5,5.5,5.5h98.95c3.04,0,5.5-2.46,5.5-5.5s-2.46-5.5-5.5-5.5Z"/><path id="Shape-6" class="cls-1" d="M228.53,396.09h-5.5c-3.04,0-5.5,2.46-5.5,5.5s2.46,5.5,5.5,5.5h5.5c3.04,0,5.5-2.46,5.5-5.5s-2.46-5.5-5.5-5.5Z"/><path id="Shape-7" class="cls-1" d="M376.96,396.09h-5.5c-3.04,0-5.5,2.46-5.5,5.5s2.46,5.5,5.5,5.5h5.5c3.04,0,5.5-2.46,5.5-5.5s-2.46-5.5-5.5-5.5Z"/><path id="Shape-8" class="cls-1" d="M349.48,396.09h-98.95c-3.04,0-5.5,2.46-5.5,5.5s2.46,5.5,5.5,5.5h98.95c3.04,0,5.5-2.46,5.5-5.5s-2.46-5.5-5.5-5.5Z"/><path class="cls-1" d="M335.92,216.86c1.04-1.52.36-2.68-1.49-2.56h0l-31.69,1.92h0c-1.85.1-2.87,1.61-2.28,3.36h0l10.21,29.82h0c.57,1.74,1.91,1.91,2.94.38h0l22.3-32.92Z"/><path class="cls-1" d="M353.67,251.67c1.69-.75,1.75-2.06.12-2.95h0l-26.25-14.21h0c-1.63-.88-3.31-.14-3.74,1.67h0l-6.92,28.84h0c-.44,1.79.6,2.64,2.28,1.89h0l34.51-15.24Z"/><path class="cls-1" d="M347.46,289.88c1.82.36,2.62-.7,1.8-2.34h0l-12.42-24.99h0c-.81-1.63-2.62-1.98-4-.78h0l-21.05,18.45h0c-1.38,1.21-1.04,2.49.78,2.84h0l34.88,6.81Z"/><path class="cls-1" d="M325.29,314.89c1.39,1.21,2.62.7,2.75-1.13h0l1.65-24.34h0c.13-1.84-1.25-3.04-3.06-2.67h0l-24.12,4.8h0c-1.82.36-2.19,1.64-.78,2.86h0l23.55,20.48Z"/><path class="cls-1" d="M297.77,323.62c.62,1.73,1.94,1.87,2.96.33h0l10.8-16.59h0c.98-1.53.36-3.25-1.38-3.8h0l-18.99-5.97h0c-1.77-.55-2.68.39-2.05,2.13h0l8.66,23.91Z"/><path class="cls-1" d="M276.17,320.57c-.17,1.82.99,2.52,2.54,1.52h0l12.29-7.77h0c1.56-1,1.71-2.8.34-4.04h0l-10.81-9.71h0c-1.36-1.23-2.6-.74-2.76,1.08h0l-1.6,18.92Z"/><path class="cls-1" d="M262.9,313.24c-.7,1.71.19,2.68,1.98,2.21h0l8.91-2.44h0c1.8-.48,2.49-2.17,1.55-3.75h0l-4.71-7.9h0c-.96-1.59-2.29-1.49-2.97.2h0l-4.75,11.67Z"/><path class="cls-1" d="M255.88,306.25c-1.02,1.53-.35,2.68,1.5,2.55h0l4.45-.29h0c1.85-.13,2.86-1.66,2.26-3.38h0l-1.47-4.18h0c-.61-1.73-1.93-1.9-2.96-.38h0l-3.79,5.68Z"/><path class="cls-1" d="M252.28,301.24c-1.14,1.43-.56,2.64,1.29,2.65h0l.56.02h0c1.84,0,2.97-1.43,2.52-3.19h0l-.16-.55h0c-.45-1.77-1.76-2.04-2.91-.59h0l-1.29,1.65Z"/></g></g></svg>