<?xml version="1.0" encoding="UTF-8"?><svg id="Capa_1" xmlns="http://www.w3.org/2000/svg" viewBox="0 0 600 600"><defs><style>.cls-1{fill:#fff;}</style></defs><path class="cls-1" d="M298.15,384.06c-11.2,0-20.31,9.11-20.31,20.32s9.11,20.31,20.31,20.31,20.31-9.11,20.31-20.31-9.11-20.32-20.31-20.32ZM298.15,414c-5.31,0-9.62-4.32-9.62-9.62s4.32-9.62,9.62-9.62,9.62,4.31,9.62,9.62-4.32,9.62-9.62,9.62Z"/><path class="cls-1" d="M426.62,442.76c-.81-2.03-2.78-3.37-4.97-3.37h-37.99c-.77-12.24-4.07-23.69-9.44-34.03,28.83-22.64,47.56-55.98,51.4-92.32.31-2.93-1.82-5.57-4.75-5.87-2.94-.31-5.57,1.82-5.88,4.76-3.48,32.89-20.12,63.23-45.92,84.07-1.21-1.76-2.81-3.2-4.14-4.86-2.15-2.66-4.2-5.38-6.63-7.77-.29-.28-.49-.64-.79-.92,52.63-42.11,54.48-122.31,1.45-166.2l5.24-5.24c2.09-2.09,2.09-5.47,0-7.56l-2.67-2.67,2.92-2.92c11.49,7.4,27.5,24.37,37.41,43.61,7.62,14.78,12.28,31.47,13.49,48.26.21,2.98,2.81,5.17,5.72,4.95,2.95-.21,5.16-2.77,4.95-5.71-2.84-39.48-22.47-75.15-53.87-98.79l11.6-11.6c5.76,2.86,11.51,1.39,15.24-2.34l4.7-4.7c5.18-5.17,5.18-13.59,0-18.77l-34.24-34.23c-5.17-5.18-13.59-5.18-18.77,0l-4.7,4.7c-4.88,4.88-4.98,12.55-.67,17.76l-21.78,21.78-4.76-4.76c-2.09-2.09-5.47-2.09-7.56,0l-34.06,34.06c-2.09,2.09-2.09,5.47,0,7.56,2.09,2.09,5.47,2.09,7.56,0l30.29-30.29c12.02,12.02,22.35,22.35,37.88,37.88l-72.92,72.92-37.89-37.89,27.19-27.19c2.09-2.09,2.09-5.47,0-7.56-2.09-2.08-5.48-2.08-7.56,0l-27.19,27.19-1.18-1.18c-4.46-4.46-11.72-4.46-16.18,0l-8.95,8.95c-4.46,4.46-4.46,11.72,0,16.18l1.18,1.18c-4.9,5.75-11.47,8.76-11.47,17.08,0,3.61,1.41,7.02,3.97,9.57,4.02,3.32,7,9.46,15.07,9.46s11.31-6.55,17.08-11.47l3.72,3.72c-4.9,5.75-11.47,8.76-11.47,17.08s6.12,11.03,9.46,15.07c2.56,2.56,5.96,3.97,9.58,3.97,8.34,0,11.31-6.55,17.09-11.47.74.53,3.3,4.52,9.26,4.52,2.93,0,5.86-1.11,8.09-3.34l8.94-8.95c4.46-4.46,4.46-11.72,0-16.18l-1.17-1.18,63.7-63.7c22.72,18.43,35.97,45.24,35.97,74.67s-14.35,58.58-38.4,76.84c-33.27-24.42-77.37-22.02-107.94,5.5-7.32-4.42-13.78-9.88-19.64-16.01h24.2c7.27,0,13.18-5.91,13.18-13.18v-8.08c0-7.27-5.91-13.18-13.18-13.18h-85.53c-7.27,0-13.19,5.91-13.19,13.18v8.08c0,7.27,5.92,13.18,13.19,13.18h12.36c8.85,16.77,25.26,35.1,46.02,48.22-3.24,8.18-5.05,17-5.63,26.18h-37.99c-2.19,0-4.16,1.34-4.97,3.37l-11.73,29.55c-1.39,3.5,1.19,7.32,4.97,7.32h29.51c2.96,0,5.35-2.39,5.35-5.35s-2.39-5.35-5.35-5.35h-21.64l7.49-18.86h239.75l7.49,18.86h-208.08c-2.95,0-5.34,2.39-5.34,5.35s2.39,5.35,5.34,5.35h215.95c3.77,0,6.36-3.81,4.97-7.32l-11.73-29.55ZM218.97,284.41c-1.11,1.11-2.92,1.11-4.03,0l-5.49-5.49c-1.11-1.11-1.11-2.92,0-4.03l7.51-7.5,9.52,9.52-7.51,7.51ZM247.33,312.77c-1.11,1.11-2.92,1.11-4.03,0l-5.49-5.49c-1.11-1.11-1.11-2.92,0-4.03l7.51-7.51,9.52,9.52-7.51,7.51ZM281.14,297.49l-8.95,8.94c-1.03,1.03,1.7,2.27-56.42-55.36-.29-.29-.29-.77,0-1.06,9.02-8.9,9.21-9.74,10-8.95l4.96,4.96c53.25,53.25,51.23,50.64,50.4,51.46ZM353.55,130.78l4.7-4.7c1.01-1.01,2.65-1.01,3.65,0l34.23,34.23c1,1,1,2.64,0,3.65l-4.7,4.7c-1.01,1.01-2.64,1.01-3.65,0l-34.24-34.24c-1-1.01-1-2.64,0-3.65ZM352.7,148.71l22.9,22.9-21.61,21.61-22.9-22.9,21.61-21.61ZM157.38,351.81v-8.08c0-1.38,1.12-2.5,2.49-2.5h85.53c1.38,0,2.49,1.12,2.49,2.5v8.08c0,1.38-1.12,2.49-2.49,2.49h-85.53c-1.37,0-2.49-1.12-2.49-2.49ZM222.58,403.54c-15.33-9.94-28.31-23.12-37.98-38.55h21.78c7.43,9.42,16.25,17.42,26.31,23.87-1.06,1.24-1.78,2.72-2.77,4.02-1.79,2.36-3.47,4.76-5.02,7.29-.71,1.17-1.67,2.17-2.32,3.37ZM222.97,439.39c2.69-38.17,35.37-70.03,75.18-70.03s72.56,32.74,75.18,70.03h-150.36Z"/></svg>