<?xml version="1.0" encoding="UTF-8"?><svg id="Capa_1" xmlns="http://www.w3.org/2000/svg" viewBox="0 0 600 600"><defs><style>.cls-1{fill:#fff;}</style></defs><path class="cls-1" d="M479.19,290.95c-3.02-9.51-13.55-17.92-29.5-13.92-.04,0-.08.02-.12.03l-.67.18c-1.65-3.88-3.78-7.46-6.37-10.7l-82.05-102.58c-7.39-9.29-17.92-14.62-28.87-14.64h-.04c-10.92,0-21.42,5.3-28.81,14.53l-17.29,21.61c-2.43,3.04-1.94,7.46,1.1,9.89,3.04,2.43,7.46,1.94,9.89-1.1l17.29-21.61c4.77-5.97,11.1-9.25,17.82-9.25h.02c6.75,0,13.1,3.32,17.89,9.34l82.06,102.59c1.38,1.73,2.58,3.61,3.58,5.62l-50.84,13.7c-2.57-10.29-12.54-17.31-23.34-15.97-3.8.47-16.64,2.3-30.24,4.23-12.96,1.84-26.36,3.75-30.04,4.21-8.07,1-18.79-.64-30.14-2.38-13.01-1.99-27.84-4.26-42.88-3.17,1.38-2.93,3.14-5.59,5.22-7.84.11-.12.22-.24.32-.37l28.09-35.13c2.43-3.04,1.94-7.46-1.1-9.89-3.03-2.43-7.46-1.94-9.89,1.1l-27.95,34.95c-4.99,5.47-8.57,12.22-10.53,19.73-5.93,1.54-11.8,3.79-17.52,7.01-27.99,15.72-46.63,50.87-56.9,107.37-10.1,2.68-17.57,11.9-17.57,22.83,0,13.02,10.59,23.61,23.61,23.61h90.4c13.02,0,23.61-10.59,23.61-23.61,0-10-6.25-18.56-15.04-21.99l5.58-22.76,39.95.44c30.6.34,40.32-1.5,69.23-13.09,8.1-3.25,17.38-7.09,28.37-11.75,3.58-1.52,5.25-5.65,3.73-9.23-1.52-3.58-5.65-5.25-9.23-3.73-10.9,4.62-20.1,8.43-28.12,11.65-27.25,10.93-35.01,12.39-63.83,12.07l-45.53-.51h-.08c-3.24,0-6.06,2.21-6.83,5.36l-7.34,29.92h-76.46c9.55-50.15,25.71-81.05,49.32-94.31,21.03-11.81,45.56-8.05,67.21-4.73,12.34,1.89,23.99,3.68,34,2.43,3.8-.47,16.67-2.3,30.29-4.24,12.94-1.84,26.32-3.74,29.99-4.2,3.97-.49,7.62,2.32,8.11,6.26.16,1.24.57,4.53-8.37,8.63-18.9,8.66-39.03,16.08-55.25,20.34-3.76.99-6,4.84-5.02,8.6.99,3.76,4.84,6,8.6,5.02,16.96-4.47,37.93-12.18,57.53-21.16,6.81-3.12,11-6.76,13.47-10.43l71.42-19.25c7.62-1.89,11.51,1.1,12.61,4.54,1.05,3.3-.29,7.57-5.64,9.66-4.49,1.69-13.83,5.7-28.44,12.05-3.57,1.55-5.2,5.7-3.65,9.26,1.55,3.57,5.69,5.2,9.26,3.65,11.54-5.02,23.19-10.05,27.82-11.8.03,0,.04-.02.07-.03,13.21-5.12,17.04-17.49,14-27.06ZM243.38,421.33c0,5.26-4.28,9.54-9.54,9.54h-90.4c-5.26,0-9.54-4.28-9.54-9.54s4.28-9.53,9.53-9.54h90.43c5.25.01,9.51,4.28,9.51,9.54Z"/><path class="cls-1" d="M288.15,262.21c3.89,0,7.04-3.15,7.04-7.04s-3.15-7.04-7.04-7.04-7.04,3.15-7.04,7.04h0c0,3.89,3.15,7.04,7.04,7.04Z"/><path class="cls-1" d="M324.4,225.61c0-3.89-3.15-7.04-7.04-7.04s-7.04,3.15-7.04,7.04h0c0,3.89,3.15,7.04,7.04,7.04s7.04-3.15,7.04-7.04Z"/><path class="cls-1" d="M380.7,244.25c0-3.89-3.15-7.04-7.04-7.04s-7.04,3.15-7.04,7.04h0c0,3.89,3.15,7.04,7.04,7.04s7.04-3.15,7.04-7.04Z"/><path class="cls-1" d="M269.08,217.44c1.28.98,2.79,1.46,4.29,1.46,2.11,0,4.2-.95,5.58-2.75h0c2.37-3.08,1.79-7.5-1.29-9.87-3.08-2.37-7.5-1.79-9.87,1.29-2.37,3.08-1.8,7.5,1.29,9.87Z"/><path class="cls-1" d="M405.9,328.13c-3.57,1.53-5.23,5.67-3.7,9.24,1.14,2.67,3.74,4.27,6.47,4.27.92,0,1.87-.18,2.77-.57h0c3.57-1.53,5.22-5.67,3.69-9.24-1.53-3.57-5.67-5.23-9.24-3.69Z"/></svg>