<?xml version="1.0" encoding="UTF-8"?><svg id="Capa_1" xmlns="http://www.w3.org/2000/svg" viewBox="0 0 600 600"><defs><style>.cls-1{fill:#fff;}</style></defs><path class="cls-1" d="M347.14,456.03c.01-3-.96-6.53.3-8.85,1.48-2.73,5.37-.91,8.18-1.17,37.63-3.54,65.38-21.8,83-55.32.61-1.17,1.14-2.39,1.9-4-1.43-.07-2.49-.16-3.56-.16-11.58-.01-23.17-.06-34.75.04-2.17.02-3.05-.32-3.01-2.81.12-7.17,0-7.17,7.28-7.17,11.79,0,23.58-.04,35.37.04,1.84.01,2.69-.49,3.22-2.33,2.21-7.66,2.28-7.64-5.76-7.64-9.1,0-18.2-.05-27.3.04-2.01.02-2.89-.28-2.87-2.62.05-7.35-.06-7.35,7.41-7.35,9.72,0,19.44-.07,29.16.05,2.14.03,2.76-.63,2.97-2.69.75-7.3.83-7.29-6.54-7.29-6.83,0-13.65-.08-20.48.05-2.05.04-2.58-.59-2.58-2.6,0-7.38-.08-7.38,7.37-7.38,6.52,0,13.03-.07,19.55.04,1.97.03,2.49-.52,2.2-2.46-1.23-8.42-3.31-16.59-6.35-24.54-.82-2.14-1.85-2.9-4.22-2.89-35.78.09-71.56.06-107.35.06-12.51,0-25.03-.06-37.54.05-2.2.02-2.75-.6-2.74-2.76.06-7.22-.03-7.22,7.22-7.22h137.78c.13-1.51-.86-2.39-1.49-3.38-12.3-19.36-29.26-32.92-50.87-40.58-2.4-.85-3.3-1.86-3.29-4.52.12-25.85.04-51.71.12-77.56,0-2.37-.51-3.15-3.02-3.1-8.06.17-16.13.01-24.2.1-1.91.02-2.67-.34-2.68-2.5,0-7.47-.1-7.47,7.29-7.47,8.48,0,16.96.02,25.44.02,5.97,0,8.23-2.85,7.08-8.74-.23-1.19-.86-1.2-1.72-1.2-1.65,0-3.31,0-4.96,0-22.75,0-45.5-.04-68.25.1-1.43,0-3.98-1.69-4.49,1.39-.71,4.34.51,7.18,3.35,8.12.86.28,1.83.31,2.75.31,3.83.03,7.66.09,11.48-.02,1.74-.05,2.25.47,2.29,2.25.17,7.62.23,7.76-7.33,7.64-2.69-.04-2.67,1.18-2.67,3.13.04,25.75-.02,51.5.09,77.25.01,2.68-.62,3.96-3.31,4.82-7.7,2.49-14.89,6.15-21.55,10.75-1.7,1.17-2.51.93-3.65-.69-4.42-6.28-4.48-6.25,2.19-10.22,4.53-2.7,9.19-5.15,14.11-7.06,1.52-.59,2.26-1.27,2.25-3.09-.07-24.51-.06-49.02-.01-73.53,0-1.58-.58-2.32-1.92-3.05-5.37-2.93-8.01-7.57-8.04-13.67-.02-3.93.1-7.86-.05-11.79-.07-2,.48-2.66,2.56-2.61,5.68.14,11.37.05,17.06.05,25.44,0,50.88.04,76.32-.06,2.56,0,3.71.37,3.47,3.3-.3,3.7-.05,7.44-.08,11.16-.05,6.1-2.66,10.76-8.08,13.63-1.4.74-1.88,1.53-1.87,3.07.04,24.51.07,49.02-.03,73.53,0,2.15,1.19,2.53,2.62,3.17,31.88,14.09,53.09,37.75,62.79,71.23,18.25,63.01-24.7,128.65-89.69,137.59-2.43.33-4.97.1-7.3,1.11h-10.55Z"/><path class="cls-1" d="M141.1,409.49c7.05-10.19,14.12-20.36,21.13-30.58,13.91-20.29,27.76-40.61,41.7-60.88,1.17-1.7,1.75-3.34,1.75-5.42-.06-20.68-.06-41.37,0-62.05,0-1.96-.16-2.95-2.59-3.37-7.49-1.28-12.24-7.23-12.33-14.87-.05-4.03.11-8.07-.06-12.1-.09-2.11.67-2.54,2.63-2.54,31.44.06,62.88.06,94.32,0,1.89,0,2.51.47,2.44,2.41-.15,4.03,0,8.07-.05,12.1-.09,7.81-4.85,13.71-12.51,15.05-2.02.35-2.41,1.03-2.41,2.88.06,21.1.06,42.19,0,63.29,0,1.68.62,2.94,1.51,4.25,20.5,29.93,40.97,59.88,61.49,89.79,1.11,1.61,1.69,3.19,1.6,5.15-.28,6.09.52,12.21-.49,18.27-2.14,12.87-11.3,22.15-24.16,24.64-.5.1-.96.34-1.44.51h-147.08c-.58-.79-1.5-.54-2.27-.74-10.68-2.8-17.92-9.37-21.66-19.76-.58-1.62-1.01-3.3-1.51-4.95,0-7.03,0-14.07,0-21.1ZM240.25,446.1c22.85,0,45.69.02,68.54,0,12.56-.01,20.92-8.44,20.96-21.05.01-3.2-.07-6.41.03-9.61.06-1.74-.4-3.16-1.39-4.6-9.61-13.96-19.19-27.93-28.69-41.96-1.12-1.66-2.29-2.25-4.28-2.25-36.7.06-73.4.06-110.1,0-2.01,0-3.15.63-4.26,2.28-7.8,11.56-15.38,23.3-23.72,34.46-4.84,6.48-6.82,13.04-6.47,21.1.58,13.4,8.36,21.64,21.76,21.64,22.54,0,45.07,0,67.61,0ZM291.14,356.58c-.75-1.17-1.23-1.95-1.75-2.71-7.46-10.92-14.89-21.86-22.43-32.73-1.24-1.79-1.79-3.53-1.79-5.71.07-21.5-.03-43.01.12-64.51.02-2.96-.9-3.55-3.61-3.47-6.4.19-12.82.06-19.23.06-7.08,0-6.99,0-7.09-7.04-.03-2.25.46-2.98,2.86-2.95,11.58.14,23.16.06,34.73.06,5.67,0,7.04-1.52,7.21-7.13.07-2.43-.74-2.85-2.96-2.84-17.68.09-35.36.05-53.03.05-7.03,0-14.06-.02-21.09.03-.8,0-1.86-.56-2.37.76-1.78,4.54,1.17,9.09,6.03,9.13,5.27.04,10.55.16,15.81-.06,2.58-.11,3.03.83,2.99,3.14-.11,6.82-.02,6.93-6.95,6.8-2.38-.04-3.11.54-3.09,3.03.11,21.71.04,43.42.1,65.13,0,2.07-.53,3.73-1.7,5.43-7.53,10.87-14.97,21.8-22.41,32.73-.56.82-1.4,1.52-1.46,2.8h101.11Z"/><path class="cls-1" d="M280.1,163.36c-.1,13.55-11.28,24.62-24.82,24.57-13.85-.04-24.94-11.32-24.8-25.23.13-13.49,11.39-24.49,24.99-24.41,13.7.08,24.74,11.31,24.64,25.06ZM255.25,148.24c-8.07-.02-14.82,6.69-14.84,14.75-.02,8.27,6.68,15.02,14.91,15,8.11-.02,14.79-6.65,14.84-14.75.05-8.24-6.65-14.98-14.91-15Z"/><path class="cls-1" d="M215.57,207.78c-8.08.03-14.84-6.65-14.88-14.71-.05-8.27,6.64-15.04,14.87-15.04,8.12,0,14.81,6.61,14.88,14.71.08,8.24-6.61,15.01-14.87,15.04ZM215.43,197.85c2.66.08,4.96-2.06,5.09-4.72.12-2.66-1.99-5-4.64-5.16-2.78-.17-5.2,2.08-5.24,4.87-.04,2.66,2.13,4.93,4.8,5.01Z"/><path class="cls-1" d="M250.33,203.06q0,4.73-4.65,4.73-5.28,0-5.28-5.35c0-.41.06-.83,0-1.23-.45-2.63.46-3.9,3.27-3.36.5.1,1.03.01,1.54.01q5.12,0,5.12,5.19Z"/><path class="cls-1" d="M399.26,361.6q0,5.07-5.87,5.07-4.06,0-4.06-5.95,0-3.99,6.33-3.98,3.6,0,3.6,4.86Z"/><path class="cls-1" d="M205.77,386.53q-5.09,0-5.09-5.23,0-4.7,4.69-4.7,5.24,0,5.24,5.38,0,4.55-4.84,4.55Z"/><path class="cls-1" d="M275.02,386.53q5.09,0,5.09,5.22,0,4.7-4.68,4.7-5.25,0-5.25-5.38,0-4.55,4.84-4.55Z"/><path class="cls-1" d="M185.89,406.39q4.86,0,4.86,5.77,0,4.16-6.16,4.16-3.78,0-3.77-6.23,0-3.7,5.07-3.7Z"/><path class="cls-1" d="M235.33,416.31q5.07,0,5.07,5.87,0,4.06-5.95,4.06-3.99,0-3.98-6.33,0-3.6,4.86-3.6Z"/><path class="cls-1" d="M307.42,421.28q0,4.97-5.97,4.97-3.97,0-3.96-6.04,0-3.89,6.12-3.89,3.81,0,3.81,4.96Z"/><path class="cls-1" d="M250.33,272.29q0,5.01-5.92,5.01-4.01,0-4.01-6,0-3.93,6.08-3.93,3.85,0,3.85,4.92Z"/><path class="cls-1" d="M235.73,297.16q4.67,0,4.67,4.72,0,5.21-5.11,5.21-4.82,0-4.82-4.88,0-5.05,5.26-5.05Z"/><path class="cls-1" d="M240.4,321.73q0-4.71,4.68-4.71,5.25,0,5.25,5.37c0,.62-.08,1.25.01,1.85.33,2.14-.48,3.06-2.68,2.72-.7-.11-1.44-.02-2.16-.02q-5.1,0-5.1-5.22Z"/><path class="cls-1" d="M225.3,346.81q-4.76,0-4.76-4.94t5.01-4.99,4.92,4.78q0,5.15-5.17,5.15Z"/></svg>